<svg width="24" height="34" viewBox="0 0 24 34" fill="none" xmlns="http://www.w3.org/2000/svg">
<path d="M16.2 2.4V1.8H15.6H2.40001H1.80001V2.4V12.204V13.6525L2.82427 12.6283L3.52027 11.9323L4.05254 11.4H15.6H16.2V10.8V2.4ZM4.80001 12.6H4.55148L4.37574 12.7757L0.600008 16.5515V1.2C0.600008 0.871371 0.871378 0.6 1.20001 0.6H16.8C17.1286 0.6 17.4 0.871371 17.4 1.2V12C17.4 12.3286 17.1286 12.6 16.8 12.6H4.80001ZM20.4 16.2H21V15.6V5.4H22.8C23.1286 5.4 23.4 5.67137 23.4 6V22.5515L19.6243 18.7757L19.4485 18.6H19.2H6.00001C5.67138 18.6 5.40001 18.3286 5.40001 18V16.2H20.4Z" fill="white" stroke="white" stroke-width="1.2"/>
<path d="M4.48625 33.2727H3.08L5.64037 26H7.26679L9.83071 33.2727H8.42446L6.48199 27.4915H6.42517L4.48625 33.2727ZM4.53241 30.4212H8.36764V31.4794H4.53241V30.4212Z" fill="white"/>
<path d="M14.955 29.2599L13.7831 29.3878C13.75 29.2694 13.692 29.1581 13.6091 29.054C13.5286 28.9498 13.4197 28.8658 13.2824 28.8018C13.1451 28.7379 12.977 28.706 12.7782 28.706C12.5106 28.706 12.2857 28.764 12.1034 28.88C11.9235 28.996 11.8347 29.1463 11.8371 29.331C11.8347 29.4896 11.8927 29.6186 12.0111 29.718C12.1318 29.8175 12.3307 29.8991 12.6077 29.9631L13.5381 30.1619C14.0542 30.2732 14.4377 30.4496 14.6887 30.6911C14.942 30.9325 15.0698 31.2486 15.0722 31.6392C15.0698 31.9825 14.9692 32.2855 14.7703 32.5483C14.5738 32.8087 14.3004 33.0123 13.95 33.1591C13.5996 33.3059 13.1972 33.3793 12.7426 33.3793C12.075 33.3793 11.5376 33.2396 11.1304 32.9602C10.7232 32.6785 10.4806 32.2867 10.4024 31.7848L11.656 31.6641C11.7128 31.9103 11.8335 32.0961 12.0182 32.2216C12.2029 32.3471 12.4432 32.4098 12.7391 32.4098C13.0445 32.4098 13.2895 32.3471 13.4742 32.2216C13.6612 32.0961 13.7547 31.9411 13.7547 31.7564C13.7547 31.6001 13.6943 31.4711 13.5736 31.3693C13.4552 31.2675 13.2706 31.1894 13.0196 31.1349L12.0892 30.9396C11.566 30.8307 11.179 30.6473 10.928 30.3892C10.6771 30.1288 10.5528 29.7997 10.5551 29.402C10.5528 29.0658 10.6439 28.7746 10.8286 28.5284C11.0156 28.2798 11.2748 28.0881 11.6063 27.9531C11.9401 27.8158 12.3248 27.7472 12.7604 27.7472C13.3996 27.7472 13.9027 27.8833 14.2696 28.1555C14.6389 28.4278 14.8674 28.7959 14.955 29.2599Z" fill="white"/>
<path d="M17.3041 31.5611L17.3005 30.0092H17.5065L19.4667 27.8182H20.9688L18.5576 30.5028H18.2913L17.3041 31.5611ZM16.1322 33.2727V26H17.4177V33.2727H16.1322ZM19.5555 33.2727L17.7799 30.7905L18.6464 29.8849L21.0931 33.2727H19.5555Z" fill="white"/>
</svg>
