<svg width="127" height="26" viewBox="0 0 127 26" fill="none" xmlns="http://www.w3.org/2000/svg">
<path d="M0.0658486 1.72727H6.13403L12.5431 17.3636H12.8158L19.2249 1.72727H25.2931V25H20.5204V9.85227H20.3272L14.3045 24.8864H11.0545L5.03176 9.79545H4.83858V25H0.0658486V1.72727ZM35.9307 25.3409C34.1353 25.3409 32.5898 24.9773 31.2944 24.25C30.0065 23.5152 29.0141 22.4773 28.3171 21.1364C27.6201 19.7879 27.2716 18.1932 27.2716 16.3523C27.2716 14.5568 27.6201 12.9811 28.3171 11.625C29.0141 10.2689 29.9951 9.21212 31.2603 8.45454C32.533 7.69697 34.0254 7.31818 35.7376 7.31818C36.8891 7.31818 37.961 7.50379 38.9535 7.875C39.9535 8.23864 40.8247 8.78788 41.5671 9.52273C42.3171 10.2576 42.9004 11.1818 43.3171 12.2955C43.7338 13.4015 43.9421 14.697 43.9421 16.1818V17.5114H29.2035V14.5114H39.3853C39.3853 13.8144 39.2338 13.197 38.9307 12.6591C38.6277 12.1212 38.2072 11.7008 37.6694 11.3977C37.1391 11.0871 36.5216 10.9318 35.8171 10.9318C35.0822 10.9318 34.4307 11.1023 33.8626 11.4432C33.3019 11.7765 32.8626 12.2273 32.5444 12.7955C32.2262 13.3561 32.0633 13.9811 32.0557 14.6705V17.5227C32.0557 18.3864 32.2148 19.1326 32.533 19.7614C32.8588 20.3902 33.3171 20.875 33.908 21.2159C34.4989 21.5568 35.1997 21.7273 36.0103 21.7273C36.5482 21.7273 37.0406 21.6515 37.4876 21.5C37.9345 21.3485 38.3171 21.1212 38.6353 20.8182C38.9535 20.5152 39.1959 20.1439 39.3626 19.7045L43.8398 20C43.6126 21.0758 43.1466 22.0152 42.4421 22.8182C41.7451 23.6136 40.8436 24.2348 39.7376 24.6818C38.6391 25.1212 37.3701 25.3409 35.9307 25.3409ZM45.8212 25V7.54545H50.4348V10.625H50.6394C51.003 9.60227 51.6091 8.79545 52.4576 8.20454C53.306 7.61364 54.3212 7.31818 55.503 7.31818C56.7 7.31818 57.7189 7.61742 58.5598 8.21591C59.4007 8.80682 59.9613 9.60985 60.2416 10.625H60.4235C60.7795 9.625 61.4235 8.82576 62.3553 8.22727C63.2947 7.62121 64.4045 7.31818 65.6848 7.31818C67.3136 7.31818 68.6356 7.83712 69.6507 8.875C70.6735 9.9053 71.1848 11.3674 71.1848 13.2614V25H66.3553V14.2159C66.3553 13.2462 66.0977 12.5189 65.5826 12.0341C65.0674 11.5492 64.4235 11.3068 63.6507 11.3068C62.7719 11.3068 62.0863 11.5871 61.5939 12.1477C61.1015 12.7008 60.8553 13.4318 60.8553 14.3409V25H56.1621V14.1136C56.1621 13.2576 55.9159 12.5758 55.4235 12.0682C54.9386 11.5606 54.2985 11.3068 53.503 11.3068C52.9651 11.3068 52.4803 11.4432 52.0485 11.7159C51.6242 11.9811 51.2871 12.3561 51.0371 12.8409C50.7871 13.3182 50.6621 13.8788 50.6621 14.5227V25H45.8212ZM81.6151 25.3409C79.8499 25.3409 78.3234 24.9659 77.0355 24.2159C75.7552 23.4583 74.7666 22.4053 74.0696 21.0568C73.3726 19.7008 73.0241 18.1288 73.0241 16.3409C73.0241 14.5379 73.3726 12.9621 74.0696 11.6136C74.7666 10.2576 75.7552 9.20454 77.0355 8.45454C78.3234 7.69697 79.8499 7.31818 81.6151 7.31818C83.3802 7.31818 84.9029 7.69697 86.1832 8.45454C87.4711 9.20454 88.4635 10.2576 89.1605 11.6136C89.8575 12.9621 90.206 14.5379 90.206 16.3409C90.206 18.1288 89.8575 19.7008 89.1605 21.0568C88.4635 22.4053 87.4711 23.4583 86.1832 24.2159C84.9029 24.9659 83.3802 25.3409 81.6151 25.3409ZM81.6378 21.5909C82.4408 21.5909 83.1113 21.3636 83.6491 20.9091C84.187 20.447 84.5923 19.8182 84.8651 19.0227C85.1454 18.2273 85.2855 17.322 85.2855 16.3068C85.2855 15.2917 85.1454 14.3864 84.8651 13.5909C84.5923 12.7955 84.187 12.1667 83.6491 11.7045C83.1113 11.2424 82.4408 11.0114 81.6378 11.0114C80.8272 11.0114 80.1454 11.2424 79.5923 11.7045C79.0469 12.1667 78.634 12.7955 78.3537 13.5909C78.081 14.3864 77.9446 15.2917 77.9446 16.3068C77.9446 17.322 78.081 18.2273 78.3537 19.0227C78.634 19.8182 79.0469 20.447 79.5923 20.9091C80.1454 21.3636 80.8272 21.5909 81.6378 21.5909ZM92.0737 25V7.54545H96.7669V10.5909H96.9487C97.2669 9.50758 97.801 8.68939 98.551 8.13636C99.301 7.57576 100.165 7.29545 101.142 7.29545C101.384 7.29545 101.646 7.31061 101.926 7.34091C102.206 7.37121 102.452 7.41288 102.665 7.46591V11.7614C102.437 11.6932 102.123 11.6326 101.721 11.5795C101.32 11.5265 100.952 11.5 100.619 11.5C99.907 11.5 99.2707 11.6553 98.7101 11.9659C98.157 12.2689 97.7176 12.6932 97.3919 13.2386C97.0737 13.7841 96.9146 14.4129 96.9146 15.125V25H92.0737ZM103.887 25V7.54545H108.728V25H103.887ZM106.319 5.29545C105.6 5.29545 104.982 5.05682 104.467 4.57954C103.959 4.0947 103.706 3.51515 103.706 2.84091C103.706 2.17424 103.959 1.60227 104.467 1.125C104.982 0.640151 105.6 0.397726 106.319 0.397726C107.039 0.397726 107.653 0.640151 108.16 1.125C108.675 1.60227 108.933 2.17424 108.933 2.84091C108.933 3.51515 108.675 4.0947 108.16 4.57954C107.653 5.05682 107.039 5.29545 106.319 5.29545ZM116.303 25.3295C115.19 25.3295 114.197 25.1364 113.326 24.75C112.455 24.3561 111.766 23.7765 111.258 23.0114C110.758 22.2386 110.508 21.2765 110.508 20.125C110.508 19.1553 110.686 18.3409 111.042 17.6818C111.398 17.0227 111.883 16.4924 112.497 16.0909C113.11 15.6894 113.807 15.3864 114.588 15.1818C115.375 14.9773 116.201 14.8333 117.065 14.75C118.08 14.6439 118.898 14.5455 119.519 14.4545C120.141 14.3561 120.591 14.2121 120.872 14.0227C121.152 13.8333 121.292 13.553 121.292 13.1818V13.1136C121.292 12.3939 121.065 11.8371 120.61 11.4432C120.163 11.0492 119.527 10.8523 118.701 10.8523C117.83 10.8523 117.137 11.0455 116.622 11.4318C116.106 11.8106 115.766 12.2879 115.599 12.8636L111.122 12.5C111.349 11.4394 111.796 10.5227 112.463 9.75C113.129 8.9697 113.989 8.37121 115.042 7.95454C116.103 7.5303 117.33 7.31818 118.724 7.31818C119.694 7.31818 120.622 7.43182 121.508 7.65909C122.402 7.88636 123.194 8.23864 123.883 8.71591C124.58 9.19318 125.129 9.80682 125.531 10.5568C125.932 11.2992 126.133 12.1894 126.133 13.2273V25H121.542V22.5795H121.406C121.125 23.125 120.75 23.6061 120.281 24.0227C119.811 24.4318 119.247 24.7538 118.588 24.9886C117.928 25.2159 117.167 25.3295 116.303 25.3295ZM117.69 21.9886C118.402 21.9886 119.031 21.8485 119.576 21.5682C120.122 21.2803 120.55 20.8939 120.86 20.4091C121.171 19.9242 121.326 19.375 121.326 18.7614V16.9091C121.175 17.0076 120.966 17.0985 120.701 17.1818C120.444 17.2576 120.152 17.3295 119.826 17.3977C119.5 17.4583 119.175 17.5152 118.849 17.5682C118.523 17.6136 118.228 17.6553 117.963 17.6932C117.394 17.7765 116.898 17.9091 116.474 18.0909C116.05 18.2727 115.72 18.5189 115.485 18.8295C115.25 19.1326 115.133 19.5114 115.133 19.9659C115.133 20.625 115.372 21.1288 115.849 21.4773C116.334 21.8182 116.947 21.9886 117.69 21.9886Z" fill="white"/>
<path d="M0.0658486 1.72727H6.13403L12.5431 17.3636H12.8158L19.2249 1.72727H25.2931V25H20.5204V9.85227H20.3272L14.3045 24.8864H11.0545L5.03176 9.79545H4.83858V25H0.0658486V1.72727ZM35.9307 25.3409C34.1353 25.3409 32.5898 24.9773 31.2944 24.25C30.0065 23.5152 29.0141 22.4773 28.3171 21.1364C27.6201 19.7879 27.2716 18.1932 27.2716 16.3523C27.2716 14.5568 27.6201 12.9811 28.3171 11.625C29.0141 10.2689 29.9951 9.21212 31.2603 8.45454C32.533 7.69697 34.0254 7.31818 35.7376 7.31818C36.8891 7.31818 37.961 7.50379 38.9535 7.875C39.9535 8.23864 40.8247 8.78788 41.5671 9.52273C42.3171 10.2576 42.9004 11.1818 43.3171 12.2955C43.7338 13.4015 43.9421 14.697 43.9421 16.1818V17.5114H29.2035V14.5114H39.3853C39.3853 13.8144 39.2338 13.197 38.9307 12.6591C38.6277 12.1212 38.2072 11.7008 37.6694 11.3977C37.1391 11.0871 36.5216 10.9318 35.8171 10.9318C35.0822 10.9318 34.4307 11.1023 33.8626 11.4432C33.3019 11.7765 32.8626 12.2273 32.5444 12.7955C32.2262 13.3561 32.0633 13.9811 32.0557 14.6705V17.5227C32.0557 18.3864 32.2148 19.1326 32.533 19.7614C32.8588 20.3902 33.3171 20.875 33.908 21.2159C34.4989 21.5568 35.1997 21.7273 36.0103 21.7273C36.5482 21.7273 37.0406 21.6515 37.4876 21.5C37.9345 21.3485 38.3171 21.1212 38.6353 20.8182C38.9535 20.5152 39.1959 20.1439 39.3626 19.7045L43.8398 20C43.6126 21.0758 43.1466 22.0152 42.4421 22.8182C41.7451 23.6136 40.8436 24.2348 39.7376 24.6818C38.6391 25.1212 37.3701 25.3409 35.9307 25.3409ZM45.8212 25V7.54545H50.4348V10.625H50.6394C51.003 9.60227 51.6091 8.79545 52.4576 8.20454C53.306 7.61364 54.3212 7.31818 55.503 7.31818C56.7 7.31818 57.7189 7.61742 58.5598 8.21591C59.4007 8.80682 59.9613 9.60985 60.2416 10.625H60.4235C60.7795 9.625 61.4235 8.82576 62.3553 8.22727C63.2947 7.62121 64.4045 7.31818 65.6848 7.31818C67.3136 7.31818 68.6356 7.83712 69.6507 8.875C70.6735 9.9053 71.1848 11.3674 71.1848 13.2614V25H66.3553V14.2159C66.3553 13.2462 66.0977 12.5189 65.5826 12.0341C65.0674 11.5492 64.4235 11.3068 63.6507 11.3068C62.7719 11.3068 62.0863 11.5871 61.5939 12.1477C61.1015 12.7008 60.8553 13.4318 60.8553 14.3409V25H56.1621V14.1136C56.1621 13.2576 55.9159 12.5758 55.4235 12.0682C54.9386 11.5606 54.2985 11.3068 53.503 11.3068C52.9651 11.3068 52.4803 11.4432 52.0485 11.7159C51.6242 11.9811 51.2871 12.3561 51.0371 12.8409C50.7871 13.3182 50.6621 13.8788 50.6621 14.5227V25H45.8212ZM81.6151 25.3409C79.8499 25.3409 78.3234 24.9659 77.0355 24.2159C75.7552 23.4583 74.7666 22.4053 74.0696 21.0568C73.3726 19.7008 73.0241 18.1288 73.0241 16.3409C73.0241 14.5379 73.3726 12.9621 74.0696 11.6136C74.7666 10.2576 75.7552 9.20454 77.0355 8.45454C78.3234 7.69697 79.8499 7.31818 81.6151 7.31818C83.3802 7.31818 84.9029 7.69697 86.1832 8.45454C87.4711 9.20454 88.4635 10.2576 89.1605 11.6136C89.8575 12.9621 90.206 14.5379 90.206 16.3409C90.206 18.1288 89.8575 19.7008 89.1605 21.0568C88.4635 22.4053 87.4711 23.4583 86.1832 24.2159C84.9029 24.9659 83.3802 25.3409 81.6151 25.3409ZM81.6378 21.5909C82.4408 21.5909 83.1113 21.3636 83.6491 20.9091C84.187 20.447 84.5923 19.8182 84.8651 19.0227C85.1454 18.2273 85.2855 17.322 85.2855 16.3068C85.2855 15.2917 85.1454 14.3864 84.8651 13.5909C84.5923 12.7955 84.187 12.1667 83.6491 11.7045C83.1113 11.2424 82.4408 11.0114 81.6378 11.0114C80.8272 11.0114 80.1454 11.2424 79.5923 11.7045C79.0469 12.1667 78.634 12.7955 78.3537 13.5909C78.081 14.3864 77.9446 15.2917 77.9446 16.3068C77.9446 17.322 78.081 18.2273 78.3537 19.0227C78.634 19.8182 79.0469 20.447 79.5923 20.9091C80.1454 21.3636 80.8272 21.5909 81.6378 21.5909ZM92.0737 25V7.54545H96.7669V10.5909H96.9487C97.2669 9.50758 97.801 8.68939 98.551 8.13636C99.301 7.57576 100.165 7.29545 101.142 7.29545C101.384 7.29545 101.646 7.31061 101.926 7.34091C102.206 7.37121 102.452 7.41288 102.665 7.46591V11.7614C102.437 11.6932 102.123 11.6326 101.721 11.5795C101.32 11.5265 100.952 11.5 100.619 11.5C99.907 11.5 99.2707 11.6553 98.7101 11.9659C98.157 12.2689 97.7176 12.6932 97.3919 13.2386C97.0737 13.7841 96.9146 14.4129 96.9146 15.125V25H92.0737ZM103.887 25V7.54545H108.728V25H103.887ZM106.319 5.29545C105.6 5.29545 104.982 5.05682 104.467 4.57954C103.959 4.0947 103.706 3.51515 103.706 2.84091C103.706 2.17424 103.959 1.60227 104.467 1.125C104.982 0.640151 105.6 0.397726 106.319 0.397726C107.039 0.397726 107.653 0.640151 108.16 1.125C108.675 1.60227 108.933 2.17424 108.933 2.84091C108.933 3.51515 108.675 4.0947 108.16 4.57954C107.653 5.05682 107.039 5.29545 106.319 5.29545ZM116.303 25.3295C115.19 25.3295 114.197 25.1364 113.326 24.75C112.455 24.3561 111.766 23.7765 111.258 23.0114C110.758 22.2386 110.508 21.2765 110.508 20.125C110.508 19.1553 110.686 18.3409 111.042 17.6818C111.398 17.0227 111.883 16.4924 112.497 16.0909C113.11 15.6894 113.807 15.3864 114.588 15.1818C115.375 14.9773 116.201 14.8333 117.065 14.75C118.08 14.6439 118.898 14.5455 119.519 14.4545C120.141 14.3561 120.591 14.2121 120.872 14.0227C121.152 13.8333 121.292 13.553 121.292 13.1818V13.1136C121.292 12.3939 121.065 11.8371 120.61 11.4432C120.163 11.0492 119.527 10.8523 118.701 10.8523C117.83 10.8523 117.137 11.0455 116.622 11.4318C116.106 11.8106 115.766 12.2879 115.599 12.8636L111.122 12.5C111.349 11.4394 111.796 10.5227 112.463 9.75C113.129 8.9697 113.989 8.37121 115.042 7.95454C116.103 7.5303 117.33 7.31818 118.724 7.31818C119.694 7.31818 120.622 7.43182 121.508 7.65909C122.402 7.88636 123.194 8.23864 123.883 8.71591C124.58 9.19318 125.129 9.80682 125.531 10.5568C125.932 11.2992 126.133 12.1894 126.133 13.2273V25H121.542V22.5795H121.406C121.125 23.125 120.75 23.6061 120.281 24.0227C119.811 24.4318 119.247 24.7538 118.588 24.9886C117.928 25.2159 117.167 25.3295 116.303 25.3295ZM117.69 21.9886C118.402 21.9886 119.031 21.8485 119.576 21.5682C120.122 21.2803 120.55 20.8939 120.86 20.4091C121.171 19.9242 121.326 19.375 121.326 18.7614V16.9091C121.175 17.0076 120.966 17.0985 120.701 17.1818C120.444 17.2576 120.152 17.3295 119.826 17.3977C119.5 17.4583 119.175 17.5152 118.849 17.5682C118.523 17.6136 118.228 17.6553 117.963 17.6932C117.394 17.7765 116.898 17.9091 116.474 18.0909C116.05 18.2727 115.72 18.5189 115.485 18.8295C115.25 19.1326 115.133 19.5114 115.133 19.9659C115.133 20.625 115.372 21.1288 115.849 21.4773C116.334 21.8182 116.947 21.9886 117.69 21.9886Z" fill="url(#paint0_linear_169_607)"/>
<defs>
<linearGradient id="paint0_linear_169_607" x1="-2" y1="0" x2="128" y2="26" gradientUnits="userSpaceOnUse">
<stop stop-color="#5271EA"/>
<stop offset="0.5" stop-color="#C0EAFF"/>
<stop offset="1" stop-color="#D977CC"/>
</linearGradient>
</defs>
</svg>
