<svg width="32" height="37" viewBox="0 0 32 37" fill="none" xmlns="http://www.w3.org/2000/svg">
<path d="M0.0932617 36V28.7273H2.82053C3.37925 28.7273 3.848 28.8244 4.22678 29.0185C4.60794 29.2126 4.89558 29.4849 5.08971 29.8352C5.28621 30.1833 5.38446 30.5893 5.38446 31.0533C5.38446 31.5197 5.28502 31.9245 5.08616 32.2678C4.88966 32.6087 4.59965 32.8727 4.21613 33.0597C3.83261 33.2443 3.36149 33.3367 2.80278 33.3367H0.860307V32.2429H2.62522C2.95193 32.2429 3.21945 32.1979 3.42778 32.108C3.63611 32.0156 3.79 31.8819 3.88943 31.7067C3.99123 31.5291 4.04213 31.3113 4.04213 31.0533C4.04213 30.7952 3.99123 30.5751 3.88943 30.3928C3.78763 30.2081 3.63256 30.0684 3.42423 29.9737C3.21589 29.8767 2.94719 29.8281 2.61812 29.8281H1.41073V36H0.0932617ZM3.85036 32.7046L5.65079 36H4.18062L2.41215 32.7046H3.85036Z" fill="white"/>
<path d="M8.477 36.1066C7.93012 36.1066 7.45782 35.9929 7.06009 35.7656C6.66473 35.536 6.36052 35.2117 6.14745 34.7926C5.93438 34.3712 5.82785 33.8753 5.82785 33.3047C5.82785 32.7436 5.93438 32.2512 6.14745 31.8274C6.36289 31.4013 6.66355 31.0699 7.04944 30.8331C7.43533 30.594 7.88869 30.4745 8.40953 30.4745C8.7457 30.4745 9.06294 30.5289 9.36123 30.6378C9.66189 30.7443 9.92704 30.9101 10.1567 31.135C10.3887 31.3599 10.571 31.6463 10.7036 31.9943C10.8361 32.34 10.9024 32.7519 10.9024 33.2301V33.6243H6.43154V32.7578H9.67018C9.66781 32.5116 9.61454 32.2926 9.51038 32.1009C9.40621 31.9067 9.26062 31.754 9.07359 31.6428C8.88893 31.5315 8.67349 31.4759 8.42728 31.4759C8.1645 31.4759 7.93367 31.5398 7.73481 31.6676C7.53595 31.7931 7.38088 31.9588 7.26961 32.1648C7.16071 32.3684 7.10507 32.5921 7.10271 32.836V33.5924C7.10271 33.9096 7.16071 34.1818 7.27671 34.4091C7.39272 34.634 7.55489 34.8068 7.76322 34.9276C7.97155 35.046 8.2154 35.1051 8.49475 35.1051C8.68178 35.1051 8.85105 35.0791 9.00257 35.027C9.15408 34.9726 9.28547 34.8933 9.39674 34.7891C9.50801 34.6849 9.59205 34.5559 9.64887 34.402L10.8492 34.537C10.7734 34.8542 10.629 35.1312 10.4159 35.3679C10.2052 35.6023 9.93533 35.7846 9.60626 35.9148C9.27719 36.0426 8.90077 36.1066 8.477 36.1066Z" fill="white"/>
<path d="M13.9692 36.1066C13.4247 36.1066 12.9571 35.987 12.5665 35.7479C12.1783 35.5088 11.8788 35.1785 11.6681 34.7571C11.4597 34.3334 11.3556 33.8457 11.3556 33.2941C11.3556 32.7401 11.4621 32.2512 11.6752 31.8274C11.8883 31.4013 12.1889 31.0699 12.5772 30.8331C12.9678 30.594 13.4294 30.4745 13.9621 30.4745C14.4048 30.4745 14.7966 30.5561 15.1375 30.7195C15.4808 30.8805 15.7543 31.1089 15.9579 31.4049C16.1615 31.6984 16.2775 32.0417 16.3059 32.4347H15.0772C15.0275 32.1719 14.9091 31.9529 14.7221 31.7777C14.5374 31.6002 14.29 31.5114 13.9799 31.5114C13.7171 31.5114 13.4863 31.5824 13.2874 31.7245C13.0885 31.8641 12.9335 32.0654 12.8222 32.3281C12.7133 32.5909 12.6589 32.9058 12.6589 33.2727C12.6589 33.6444 12.7133 33.964 12.8222 34.2316C12.9311 34.4967 13.0838 34.7015 13.2803 34.8459C13.4792 34.9879 13.7124 35.059 13.9799 35.059C14.1693 35.059 14.3385 35.0235 14.4877 34.9524C14.6392 34.879 14.7659 34.7737 14.8677 34.6364C14.9695 34.4991 15.0393 34.3322 15.0772 34.1357H16.3059C16.2751 34.5216 16.1615 34.8637 15.965 35.162C15.7685 35.4579 15.5009 35.6899 15.1624 35.858C14.8239 36.0237 14.4261 36.1066 13.9692 36.1066Z" fill="white"/>
<path d="M19.3407 36.1066C18.808 36.1066 18.3464 35.9894 17.9558 35.755C17.5651 35.5206 17.2621 35.1927 17.0467 34.7713C16.8336 34.3499 16.7271 33.8575 16.7271 33.2941C16.7271 32.7306 16.8336 32.237 17.0467 31.8132C17.2621 31.3895 17.5651 31.0604 17.9558 30.826C18.3464 30.5916 18.808 30.4745 19.3407 30.4745C19.8734 30.4745 20.335 30.5916 20.7256 30.826C21.1163 31.0604 21.4181 31.3895 21.6312 31.8132C21.8466 32.237 21.9543 32.7306 21.9543 33.2941C21.9543 33.8575 21.8466 34.3499 21.6312 34.7713C21.4181 35.1927 21.1163 35.5206 20.7256 35.755C20.335 35.9894 19.8734 36.1066 19.3407 36.1066ZM19.3478 35.0767C19.6366 35.0767 19.8781 34.9974 20.0722 34.8388C20.2664 34.6778 20.4108 34.4624 20.5055 34.1925C20.6025 33.9226 20.6511 33.6219 20.6511 33.2905C20.6511 32.9567 20.6025 32.6549 20.5055 32.385C20.4108 32.1127 20.2664 31.8961 20.0722 31.7351C19.8781 31.5741 19.6366 31.4936 19.3478 31.4936C19.0519 31.4936 18.8057 31.5741 18.6092 31.7351C18.415 31.8961 18.2694 32.1127 18.1724 32.385C18.0777 32.6549 18.0303 32.9567 18.0303 33.2905C18.0303 33.6219 18.0777 33.9226 18.1724 34.1925C18.2694 34.4624 18.415 34.6778 18.6092 34.8388C18.8057 34.9974 19.0519 35.0767 19.3478 35.0767Z" fill="white"/>
<path d="M22.6454 36V30.5455H23.8919V31.4546H23.9487C24.0481 31.1397 24.2186 30.897 24.4601 30.7266C24.7039 30.5538 24.9821 30.4674 25.2946 30.4674C25.3656 30.4674 25.4449 30.4709 25.5325 30.478C25.6225 30.4827 25.697 30.491 25.7562 30.5029V31.6854C25.7018 31.6665 25.6154 31.6499 25.497 31.6357C25.381 31.6191 25.2685 31.6108 25.1596 31.6108C24.9253 31.6108 24.7146 31.6617 24.5275 31.7635C24.3429 31.8629 24.1973 32.0014 24.0907 32.179C23.9842 32.3566 23.9309 32.5613 23.9309 32.7933V36H22.6454Z" fill="white"/>
<path d="M28.0098 36.0959C27.5813 36.0959 27.1978 35.9858 26.8592 35.7656C26.5207 35.5455 26.2532 35.2259 26.0567 34.8068C25.8602 34.3878 25.7619 33.8788 25.7619 33.2799C25.7619 32.6738 25.8614 32.1624 26.0602 31.7458C26.2615 31.3267 26.5325 31.0107 26.8734 30.7976C27.2144 30.5822 27.5943 30.4745 28.0134 30.4745C28.333 30.4745 28.5957 30.5289 28.8017 30.6378C29.0077 30.7443 29.171 30.8734 29.2918 31.0249C29.4125 31.174 29.506 31.3149 29.5723 31.4475H29.6256V28.7273H30.9146V36H29.6504V35.1406H29.5723C29.506 35.2732 29.4101 35.4141 29.2847 35.5632C29.1592 35.71 28.9935 35.8355 28.7875 35.9397C28.5815 36.0438 28.3223 36.0959 28.0098 36.0959ZM28.3685 35.0412C28.6407 35.0412 28.8727 34.9678 29.0645 34.821C29.2563 34.6719 29.4019 34.4647 29.5013 34.1996C29.6007 33.9344 29.6504 33.6255 29.6504 33.2727C29.6504 32.92 29.6007 32.6134 29.5013 32.353C29.4042 32.0926 29.2598 31.8902 29.068 31.7458C28.8787 31.6013 28.6455 31.5291 28.3685 31.5291C28.082 31.5291 27.8429 31.6037 27.6511 31.7529C27.4594 31.902 27.315 32.108 27.2179 32.3708C27.1208 32.6335 27.0723 32.9342 27.0723 33.2727C27.0723 33.6137 27.1208 33.9179 27.2179 34.1854C27.3173 34.4505 27.4629 34.6601 27.6547 34.8139C27.8488 34.9655 28.0868 35.0412 28.3685 35.0412Z" fill="white"/>
<path d="M23.9005 11.9727C23.9005 16.5488 20.1908 20.2585 15.6147 20.2585M15.6147 20.2585C11.0385 20.2585 7.32886 16.5488 7.32886 11.9727M15.6147 20.2585V24.9933M15.6147 24.9933H10.8799M15.6147 24.9933H20.3494M15.6147 15.5237C13.6535 15.5237 12.0636 13.9339 12.0636 11.9727V4.87053C12.0636 2.90933 13.6535 1.31946 15.6147 1.31946C17.5759 1.31946 19.1658 2.90933 19.1658 4.87053V11.9727C19.1658 13.9339 17.5759 15.5237 15.6147 15.5237Z" stroke="white" stroke-width="1.77553" stroke-linecap="round" stroke-linejoin="round"/>
</svg>
