<svg width="21" height="16" viewBox="0 0 21 16" fill="none" xmlns="http://www.w3.org/2000/svg">
<path d="M18.0285 2.52286C18.8726 2.01822 19.5042 1.22361 19.8054 0.28739C19.0122 0.758031 18.1443 1.08956 17.2394 1.26765C15.9847 -0.0595803 13.9969 -0.382566 12.3865 0.47916C10.7762 1.34089 9.94211 3.17399 10.3503 4.95419C7.10127 4.79107 4.07422 3.25632 2.0224 0.731847C0.951602 2.57881 1.4988 4.93986 3.27291 6.12748C2.63138 6.10685 2.00407 5.93316 1.44329 5.62088C1.44329 5.63782 1.44329 5.65477 1.44329 5.67173C1.44367 7.59565 2.79962 9.25286 4.68538 9.63414C4.09032 9.79606 3.46614 9.8199 2.86047 9.70382C3.39081 11.3492 4.90719 12.4763 6.63553 12.51C5.20407 13.6335 3.43626 14.2428 1.61655 14.2397C1.29401 14.2402 0.971725 14.2217 0.651367 14.1842C2.49924 15.3717 4.64995 16.0019 6.84646 15.9997C9.90235 16.0207 12.8391 14.816 14.9999 12.655C17.1607 10.494 18.3652 7.55713 18.3439 4.50126C18.3439 4.32611 18.3398 4.1519 18.3317 3.97864C19.1231 3.40669 19.8062 2.69815 20.3487 1.88631C19.6114 2.21312 18.8294 2.42768 18.0285 2.52286Z" fill="#1D9BF0"/>
</svg>
