<?xml version="1.0" standalone="no"?>
<!DOCTYPE svg PUBLIC "-//W3C//DTD SVG 20010904//EN"
 "http://www.w3.org/TR/2001/REC-SVG-20010904/DTD/svg10.dtd">
<svg version="1.0" xmlns="http://www.w3.org/2000/svg"
 width="520.000000pt" height="520.000000pt" viewBox="0 0 520.000000 520.000000"
 preserveAspectRatio="xMidYMid meet">
<metadata>
Created by potrace 1.14, written by Peter Selinger 2001-2017
</metadata>
<g transform="translate(0.000000,520.000000) scale(0.100000,-0.100000)"
fill="#000000" stroke="none">
<path d="M685 5149 c-16 -5 -43 -11 -60 -13 -43 -7 -103 -29 -176 -66 -224
-111 -397 -354 -426 -600 -4 -30 -7 -881 -7 -1890 0 -1735 1 -1839 18 -1914
10 -44 22 -87 26 -95 4 -9 20 -45 36 -80 16 -35 34 -69 39 -75 6 -6 23 -31 40
-54 89 -132 288 -265 442 -297 15 -3 42 -9 58 -13 42 -10 3762 -9 3805 1 113
25 265 90 326 139 188 152 288 322 321 543 7 51 7 3688 -1 3735 -16 104 -27
140 -72 236 -56 121 -155 235 -271 316 -42 29 -156 88 -177 92 -6 2 -29 8 -51
14 -22 6 -53 15 -70 19 -42 11 -3763 13 -3800 2z"/>
</g>
</svg>
