<svg width="26" height="36" viewBox="0 0 26 36" fill="none" xmlns="http://www.w3.org/2000/svg">
<path d="M17.4038 2.83599V2.20686H16.7747H2.93377H2.30463V2.83599V13.116V14.6349L3.37863 13.5609L4.10843 12.8311L4.66653 12.273H16.7747H17.4038V11.6438V2.83599ZM5.4503 13.5312H5.1897L5.00543 13.7155L1.04637 17.6746V1.57772C1.04637 1.23314 1.33092 0.948591 1.6755 0.948591H18.033C18.3775 0.948591 18.6621 1.23314 18.6621 1.57772V12.9021C18.6621 13.2467 18.3775 13.5312 18.033 13.5312H5.4503ZM21.8078 17.306H22.4369V16.6769V5.98165H24.3243C24.6689 5.98165 24.9534 6.2662 24.9534 6.61079V23.9659L20.9944 20.0068L20.8101 19.8226H20.5495H6.70856C6.36398 19.8226 6.07943 19.538 6.07943 19.1934V17.306H21.8078Z" fill="white" stroke="white" stroke-width="1.25827"/>
<path d="M8.98964 30.1811H7.66151C7.62363 29.9633 7.55379 29.7704 7.45199 29.6023C7.35019 29.4318 7.22354 29.2874 7.07202 29.1691C6.92051 29.0507 6.74768 28.9619 6.55356 28.9027C6.36179 28.8412 6.15464 28.8104 5.93211 28.8104C5.53675 28.8104 5.18637 28.9098 4.88097 29.1087C4.57557 29.3052 4.33646 29.594 4.16364 29.9752C3.99082 30.354 3.90441 30.8168 3.90441 31.3637C3.90441 31.92 3.99082 32.3888 4.16364 32.7699C4.33883 33.1487 4.57794 33.4352 4.88097 33.6293C5.18637 33.8211 5.53556 33.9169 5.92856 33.9169C6.14636 33.9169 6.34996 33.8885 6.53935 33.8317C6.73111 33.7725 6.90275 33.6861 7.05427 33.5725C7.20815 33.4588 7.33717 33.3192 7.44134 33.1534C7.54787 32.9877 7.62126 32.7983 7.66151 32.5853L8.98964 32.5924C8.93992 32.938 8.8322 33.2623 8.66648 33.5654C8.50313 33.8684 8.28888 34.1359 8.02373 34.3679C7.75857 34.5976 7.44844 34.7775 7.09333 34.9077C6.73821 35.0355 6.34404 35.0995 5.9108 35.0995C5.2716 35.0995 4.70105 34.9515 4.19915 34.6556C3.69726 34.3596 3.3019 33.9323 3.01307 33.3736C2.72425 32.8149 2.57983 32.1449 2.57983 31.3637C2.57983 30.58 2.72543 29.9101 3.01662 29.3537C3.30782 28.795 3.70436 28.3677 4.20625 28.0718C4.70815 27.7758 5.27633 27.6279 5.9108 27.6279C6.31563 27.6279 6.69205 27.6847 7.04006 27.7983C7.38807 27.912 7.69821 28.0789 7.97046 28.299C8.24271 28.5168 8.46643 28.7844 8.64162 29.1016C8.81918 29.4165 8.93518 29.7763 8.98964 30.1811Z" fill="white"/>
<path d="M11.0248 31.804V35H9.73932V27.7273H10.9964V30.4723H11.0603C11.1882 30.1646 11.3859 29.9219 11.6534 29.7443C11.9233 29.5644 12.2665 29.4745 12.6832 29.4745C13.062 29.4745 13.3923 29.5538 13.674 29.7124C13.9557 29.871 14.1735 30.103 14.3274 30.4084C14.4836 30.7138 14.5618 31.0867 14.5618 31.527V35H13.2762V31.7259C13.2762 31.3589 13.1816 31.0737 12.9922 30.8701C12.8051 30.6641 12.5423 30.5611 12.2038 30.5611C11.9765 30.5611 11.7729 30.6108 11.593 30.7103C11.4155 30.8073 11.2758 30.9482 11.174 31.1328C11.0745 31.3175 11.0248 31.5412 11.0248 31.804Z" fill="white"/>
<path d="M17.0417 35.1101C16.6961 35.1101 16.3848 35.0486 16.1078 34.9255C15.8332 34.8 15.6154 34.6153 15.4544 34.3715C15.2958 34.1276 15.2164 33.827 15.2164 33.4695C15.2164 33.1617 15.2733 32.9072 15.3869 32.706C15.5005 32.5048 15.6556 32.3438 15.8521 32.223C16.0486 32.1023 16.2699 32.0112 16.5162 31.9496C16.7647 31.8857 17.0216 31.8395 17.2868 31.8111C17.6064 31.778 17.8656 31.7484 18.0645 31.7223C18.2633 31.6939 18.4077 31.6513 18.4977 31.5945C18.59 31.5353 18.6362 31.4442 18.6362 31.3211V31.2997C18.6362 31.0322 18.5569 30.8251 18.3983 30.6783C18.2396 30.5315 18.0112 30.4581 17.7129 30.4581C17.398 30.4581 17.1483 30.5268 16.9636 30.6641C16.7813 30.8014 16.6582 30.9636 16.5943 31.1506L15.394 30.9801C15.4887 30.6487 15.6449 30.3717 15.8628 30.1492C16.0806 29.9243 16.3469 29.7562 16.6618 29.6449C16.9766 29.5313 17.3246 29.4745 17.7058 29.4745C17.9686 29.4745 18.2302 29.5052 18.4906 29.5668C18.751 29.6283 18.9889 29.7301 19.2044 29.8722C19.4198 30.0119 19.5926 30.2024 19.7228 30.4439C19.8554 30.6854 19.9217 30.9872 19.9217 31.3495V35H18.6859V34.2507H18.6433C18.5652 34.4023 18.4551 34.5443 18.313 34.6769C18.1734 34.8071 17.997 34.9124 17.7839 34.9929C17.5732 35.0711 17.3258 35.1101 17.0417 35.1101ZM17.3755 34.1655C17.6336 34.1655 17.8573 34.1146 18.0467 34.0128C18.2361 33.9086 18.3817 33.7713 18.4835 33.6009C18.5877 33.4304 18.6397 33.2446 18.6397 33.0434V32.4006C18.5995 32.4337 18.5308 32.4645 18.4338 32.4929C18.3391 32.5213 18.2325 32.5462 18.1142 32.5675C17.9958 32.5888 17.8786 32.6077 17.7626 32.6243C17.6466 32.6409 17.546 32.6551 17.4608 32.6669C17.269 32.693 17.0974 32.7356 16.9458 32.7948C16.7943 32.854 16.6748 32.9368 16.5872 33.0434C16.4996 33.1475 16.4558 33.2825 16.4558 33.4482C16.4558 33.6849 16.5422 33.8637 16.715 33.9844C16.8878 34.1051 17.108 34.1655 17.3755 34.1655Z" fill="white"/>
<path d="M23.538 29.5455V30.5398H20.4024V29.5455H23.538ZM21.1765 28.2387H22.462V33.3594C22.462 33.5322 22.4881 33.6648 22.5402 33.7571C22.5946 33.8471 22.6656 33.9086 22.7532 33.9418C22.8408 33.9749 22.9379 33.9915 23.0444 33.9915C23.1249 33.9915 23.1983 33.9856 23.2646 33.9737C23.3333 33.9619 23.3853 33.9513 23.4208 33.9418L23.6375 34.9468C23.5688 34.9704 23.4706 34.9965 23.3427 35.0249C23.2173 35.0533 23.0634 35.0699 22.8811 35.0746C22.5591 35.0841 22.2691 35.0355 22.011 34.929C21.753 34.8201 21.5482 34.652 21.3967 34.4247C21.2476 34.1975 21.1742 33.9134 21.1765 33.5725V28.2387Z" fill="white"/>
</svg>
