<svg width="32" height="37" viewBox="0 0 32 37" fill="none" xmlns="http://www.w3.org/2000/svg">
<path d="M24.1222 11.8C24.1222 16.4392 20.3614 20.2 15.7222 20.2M15.7222 20.2C11.083 20.2 7.32221 16.4392 7.32221 11.8M15.7222 20.2V25M15.7222 25H10.9222M15.7222 25H20.5222M15.7222 15.4C13.734 15.4 12.1222 13.7882 12.1222 11.8V4.6C12.1222 2.61178 13.734 1 15.7222 1C17.7104 1 19.3222 2.61178 19.3222 4.6V11.8C19.3222 13.7882 17.7104 15.4 15.7222 15.4Z" stroke="url(#paint0_linear_319_1469)" stroke-width="1.8" stroke-linecap="round" stroke-linejoin="round"/>
<path d="M6.4098 31.5533H5.08168C5.0438 31.3355 4.97396 31.1425 4.87216 30.9744C4.77036 30.804 4.6437 30.6596 4.49219 30.5412C4.34067 30.4228 4.16785 30.334 3.97372 30.2749C3.78196 30.2133 3.57481 30.1825 3.35227 30.1825C2.95691 30.1825 2.60653 30.282 2.30114 30.4808C1.99574 30.6773 1.75663 30.9661 1.58381 31.3473C1.41098 31.7261 1.32457 32.1889 1.32457 32.7358C1.32457 33.2921 1.41098 33.7609 1.58381 34.142C1.759 34.5208 1.99811 34.8073 2.30114 35.0014C2.60653 35.1932 2.95573 35.2891 3.34872 35.2891C3.56652 35.2891 3.77012 35.2607 3.95952 35.2038C4.15128 35.1447 4.32292 35.0582 4.47443 34.9446C4.62831 34.831 4.75734 34.6913 4.86151 34.5256C4.96804 34.3598 5.04143 34.1705 5.08168 33.9574L6.4098 33.9645C6.36009 34.3101 6.25237 34.6345 6.08665 34.9375C5.9233 35.2405 5.70904 35.508 5.44389 35.7401C5.17874 35.9697 4.86861 36.1496 4.51349 36.2798C4.15838 36.4077 3.7642 36.4716 3.33097 36.4716C2.69176 36.4716 2.12121 36.3236 1.61932 36.0277C1.11742 35.7318 0.722064 35.3045 0.433239 34.7457C0.144413 34.187 0 33.517 0 32.7358C0 31.9522 0.145597 31.2822 0.43679 30.7259C0.727983 30.1671 1.12453 29.7398 1.62642 29.4439C2.12831 29.148 2.6965 29 3.33097 29C3.7358 29 4.11222 29.0568 4.46023 29.1705C4.80824 29.2841 5.11837 29.451 5.39062 29.6712C5.66288 29.889 5.8866 30.1565 6.06179 30.4737C6.23935 30.7886 6.35535 31.1484 6.4098 31.5533Z" fill="white"/>
<path d="M6.4098 31.5533H5.08168C5.0438 31.3355 4.97396 31.1425 4.87216 30.9744C4.77036 30.804 4.6437 30.6596 4.49219 30.5412C4.34067 30.4228 4.16785 30.334 3.97372 30.2749C3.78196 30.2133 3.57481 30.1825 3.35227 30.1825C2.95691 30.1825 2.60653 30.282 2.30114 30.4808C1.99574 30.6773 1.75663 30.9661 1.58381 31.3473C1.41098 31.7261 1.32457 32.1889 1.32457 32.7358C1.32457 33.2921 1.41098 33.7609 1.58381 34.142C1.759 34.5208 1.99811 34.8073 2.30114 35.0014C2.60653 35.1932 2.95573 35.2891 3.34872 35.2891C3.56652 35.2891 3.77012 35.2607 3.95952 35.2038C4.15128 35.1447 4.32292 35.0582 4.47443 34.9446C4.62831 34.831 4.75734 34.6913 4.86151 34.5256C4.96804 34.3598 5.04143 34.1705 5.08168 33.9574L6.4098 33.9645C6.36009 34.3101 6.25237 34.6345 6.08665 34.9375C5.9233 35.2405 5.70904 35.508 5.44389 35.7401C5.17874 35.9697 4.86861 36.1496 4.51349 36.2798C4.15838 36.4077 3.7642 36.4716 3.33097 36.4716C2.69176 36.4716 2.12121 36.3236 1.61932 36.0277C1.11742 35.7318 0.722064 35.3045 0.433239 34.7457C0.144413 34.187 0 33.517 0 32.7358C0 31.9522 0.145597 31.2822 0.43679 30.7259C0.727983 30.1671 1.12453 29.7398 1.62642 29.4439C2.12831 29.148 2.6965 29 3.33097 29C3.7358 29 4.11222 29.0568 4.46023 29.1705C4.80824 29.2841 5.11837 29.451 5.39062 29.6712C5.66288 29.889 5.8866 30.1565 6.06179 30.4737C6.23935 30.7886 6.35535 31.1484 6.4098 31.5533Z" fill="url(#paint1_linear_319_1469)"/>
<path d="M7.55948 36.3722V30.9176H8.80593V31.8267H8.86275C8.96218 31.5118 9.13264 31.2692 9.37411 31.0987C9.61796 30.9259 9.89613 30.8395 10.2086 30.8395C10.2797 30.8395 10.359 30.843 10.4466 30.8501C10.5365 30.8549 10.6111 30.8632 10.6703 30.875V32.0575C10.6158 32.0386 10.5294 32.022 10.411 32.0078C10.295 31.9912 10.1826 31.983 10.0737 31.983C9.83931 31.983 9.62861 32.0339 9.44158 32.1357C9.25692 32.2351 9.11133 32.3736 9.00479 32.5511C8.89826 32.7287 8.84499 32.9335 8.84499 33.1655V36.3722H7.55948Z" fill="white"/>
<path d="M7.55948 36.3722V30.9176H8.80593V31.8267H8.86275C8.96218 31.5118 9.13264 31.2692 9.37411 31.0987C9.61796 30.9259 9.89613 30.8395 10.2086 30.8395C10.2797 30.8395 10.359 30.843 10.4466 30.8501C10.5365 30.8549 10.6111 30.8632 10.6703 30.875V32.0575C10.6158 32.0386 10.5294 32.022 10.411 32.0078C10.295 31.9912 10.1826 31.983 10.0737 31.983C9.83931 31.983 9.62861 32.0339 9.44158 32.1357C9.25692 32.2351 9.11133 32.3736 9.00479 32.5511C8.89826 32.7287 8.84499 32.9335 8.84499 33.1655V36.3722H7.55948Z" fill="url(#paint2_linear_319_1469)"/>
<path d="M13.7145 36.4787C13.1676 36.4787 12.6953 36.3651 12.2976 36.1378C11.9022 35.9081 11.598 35.5838 11.3849 35.1648C11.1719 34.7434 11.0653 34.2474 11.0653 33.6768C11.0653 33.1158 11.1719 32.6233 11.3849 32.1996C11.6004 31.7734 11.901 31.442 12.2869 31.2053C12.6728 30.9661 13.1262 30.8466 13.647 30.8466C13.9832 30.8466 14.3004 30.901 14.5987 31.0099C14.8994 31.1165 15.1645 31.2822 15.3942 31.5071C15.6262 31.732 15.8085 32.0185 15.9411 32.3665C16.0736 32.7121 16.1399 33.1241 16.1399 33.6023V33.9964H11.669V33.13H14.9077C14.9053 32.8838 14.852 32.6648 14.7479 32.473C14.6437 32.2789 14.4981 32.1262 14.3111 32.0149C14.1264 31.9036 13.911 31.848 13.6648 31.848C13.402 31.848 13.1712 31.9119 12.9723 32.0398C12.7734 32.1652 12.6184 32.331 12.5071 32.5369C12.3982 32.7405 12.3426 32.9643 12.3402 33.2081V33.9645C12.3402 34.2817 12.3982 34.554 12.5142 34.7813C12.6302 35.0062 12.7924 35.179 13.0007 35.2997C13.209 35.4181 13.4529 35.4773 13.7322 35.4773C13.9193 35.4773 14.0885 35.4512 14.2401 35.3991C14.3916 35.3447 14.523 35.2654 14.6342 35.1612C14.7455 35.0571 14.8295 34.928 14.8864 34.7741L16.0866 34.9091C16.0109 35.2263 15.8665 35.5033 15.6534 35.7401C15.4427 35.9744 15.1728 36.1567 14.8438 36.2869C14.5147 36.4148 14.1383 36.4787 13.7145 36.4787Z" fill="white"/>
<path d="M13.7145 36.4787C13.1676 36.4787 12.6953 36.3651 12.2976 36.1378C11.9022 35.9081 11.598 35.5838 11.3849 35.1648C11.1719 34.7434 11.0653 34.2474 11.0653 33.6768C11.0653 33.1158 11.1719 32.6233 11.3849 32.1996C11.6004 31.7734 11.901 31.442 12.2869 31.2053C12.6728 30.9661 13.1262 30.8466 13.647 30.8466C13.9832 30.8466 14.3004 30.901 14.5987 31.0099C14.8994 31.1165 15.1645 31.2822 15.3942 31.5071C15.6262 31.732 15.8085 32.0185 15.9411 32.3665C16.0736 32.7121 16.1399 33.1241 16.1399 33.6023V33.9964H11.669V33.13H14.9077C14.9053 32.8838 14.852 32.6648 14.7479 32.473C14.6437 32.2789 14.4981 32.1262 14.3111 32.0149C14.1264 31.9036 13.911 31.848 13.6648 31.848C13.402 31.848 13.1712 31.9119 12.9723 32.0398C12.7734 32.1652 12.6184 32.331 12.5071 32.5369C12.3982 32.7405 12.3426 32.9643 12.3402 33.2081V33.9645C12.3402 34.2817 12.3982 34.554 12.5142 34.7813C12.6302 35.0062 12.7924 35.179 13.0007 35.2997C13.209 35.4181 13.4529 35.4773 13.7322 35.4773C13.9193 35.4773 14.0885 35.4512 14.2401 35.3991C14.3916 35.3447 14.523 35.2654 14.6342 35.1612C14.7455 35.0571 14.8295 34.928 14.8864 34.7741L16.0866 34.9091C16.0109 35.2263 15.8665 35.5033 15.6534 35.7401C15.4427 35.9744 15.1728 36.1567 14.8438 36.2869C14.5147 36.4148 14.1383 36.4787 13.7145 36.4787Z" fill="url(#paint3_linear_319_1469)"/>
<path d="M18.7971 36.4822C18.4514 36.4822 18.1401 36.4207 17.8631 36.2976C17.5885 36.1721 17.3707 35.9875 17.2097 35.7436C17.0511 35.4998 16.9718 35.1991 16.9718 34.8416C16.9718 34.5339 17.0286 34.2794 17.1422 34.0781C17.2559 33.8769 17.4109 33.7159 17.6074 33.5952C17.8039 33.4744 18.0253 33.3833 18.2715 33.3217C18.5201 33.2578 18.7769 33.2116 19.0421 33.1832C19.3617 33.1501 19.6209 33.1205 19.8198 33.0945C20.0186 33.0661 20.1631 33.0234 20.253 32.9666C20.3453 32.9074 20.3915 32.8163 20.3915 32.6932V32.6719C20.3915 32.4044 20.3122 32.1972 20.1536 32.0504C19.995 31.9036 19.7665 31.8303 19.4682 31.8303C19.1533 31.8303 18.9036 31.8989 18.7189 32.0362C18.5366 32.1735 18.4135 32.3357 18.3496 32.5227L17.1493 32.3523C17.244 32.0208 17.4003 31.7438 17.6181 31.5213C17.8359 31.2964 18.1022 31.1283 18.4171 31.017C18.7319 30.9034 19.08 30.8466 19.4611 30.8466C19.7239 30.8466 19.9855 30.8774 20.2459 30.9389C20.5063 31.0005 20.7443 31.1023 20.9597 31.2443C21.1751 31.384 21.348 31.5746 21.4782 31.8161C21.6107 32.0575 21.677 32.3594 21.677 32.7216V36.3722H20.4412V35.6229H20.3986C20.3205 35.7744 20.2104 35.9164 20.0684 36.049C19.9287 36.1792 19.7523 36.2846 19.5392 36.3651C19.3285 36.4432 19.0811 36.4822 18.7971 36.4822ZM19.1309 35.5376C19.3889 35.5376 19.6126 35.4867 19.802 35.3849C19.9914 35.2808 20.137 35.1435 20.2388 34.973C20.343 34.8026 20.3951 34.6167 20.3951 34.4155V33.7727C20.3548 33.8059 20.2862 33.8366 20.1891 33.8651C20.0944 33.8935 19.9879 33.9183 19.8695 33.9396C19.7511 33.9609 19.6339 33.9799 19.5179 33.9964C19.4019 34.013 19.3013 34.0272 19.2161 34.0391C19.0243 34.0651 18.8527 34.1077 18.7012 34.1669C18.5497 34.2261 18.4301 34.3089 18.3425 34.4155C18.2549 34.5196 18.2111 34.6546 18.2111 34.8203C18.2111 35.0571 18.2975 35.2358 18.4703 35.3565C18.6432 35.4773 18.8633 35.5376 19.1309 35.5376Z" fill="white"/>
<path d="M18.7971 36.4822C18.4514 36.4822 18.1401 36.4207 17.8631 36.2976C17.5885 36.1721 17.3707 35.9875 17.2097 35.7436C17.0511 35.4998 16.9718 35.1991 16.9718 34.8416C16.9718 34.5339 17.0286 34.2794 17.1422 34.0781C17.2559 33.8769 17.4109 33.7159 17.6074 33.5952C17.8039 33.4744 18.0253 33.3833 18.2715 33.3217C18.5201 33.2578 18.7769 33.2116 19.0421 33.1832C19.3617 33.1501 19.6209 33.1205 19.8198 33.0945C20.0186 33.0661 20.1631 33.0234 20.253 32.9666C20.3453 32.9074 20.3915 32.8163 20.3915 32.6932V32.6719C20.3915 32.4044 20.3122 32.1972 20.1536 32.0504C19.995 31.9036 19.7665 31.8303 19.4682 31.8303C19.1533 31.8303 18.9036 31.8989 18.7189 32.0362C18.5366 32.1735 18.4135 32.3357 18.3496 32.5227L17.1493 32.3523C17.244 32.0208 17.4003 31.7438 17.6181 31.5213C17.8359 31.2964 18.1022 31.1283 18.4171 31.017C18.7319 30.9034 19.08 30.8466 19.4611 30.8466C19.7239 30.8466 19.9855 30.8774 20.2459 30.9389C20.5063 31.0005 20.7443 31.1023 20.9597 31.2443C21.1751 31.384 21.348 31.5746 21.4782 31.8161C21.6107 32.0575 21.677 32.3594 21.677 32.7216V36.3722H20.4412V35.6229H20.3986C20.3205 35.7744 20.2104 35.9164 20.0684 36.049C19.9287 36.1792 19.7523 36.2846 19.5392 36.3651C19.3285 36.4432 19.0811 36.4822 18.7971 36.4822ZM19.1309 35.5376C19.3889 35.5376 19.6126 35.4867 19.802 35.3849C19.9914 35.2808 20.137 35.1435 20.2388 34.973C20.343 34.8026 20.3951 34.6167 20.3951 34.4155V33.7727C20.3548 33.8059 20.2862 33.8366 20.1891 33.8651C20.0944 33.8935 19.9879 33.9183 19.8695 33.9396C19.7511 33.9609 19.6339 33.9799 19.5179 33.9964C19.4019 34.013 19.3013 34.0272 19.2161 34.0391C19.0243 34.0651 18.8527 34.1077 18.7012 34.1669C18.5497 34.2261 18.4301 34.3089 18.3425 34.4155C18.2549 34.5196 18.2111 34.6546 18.2111 34.8203C18.2111 35.0571 18.2975 35.2358 18.4703 35.3565C18.6432 35.4773 18.8633 35.5376 19.1309 35.5376Z" fill="url(#paint4_linear_319_1469)"/>
<path d="M25.6934 30.9176V31.9119H22.5577V30.9176H25.6934ZM23.3319 29.6108H24.6174V34.7315C24.6174 34.9044 24.6434 35.0369 24.6955 35.1293C24.7499 35.2192 24.821 35.2808 24.9086 35.3139C24.9962 35.3471 25.0932 35.3636 25.1998 35.3636C25.2802 35.3636 25.3536 35.3577 25.4199 35.3459C25.4886 35.334 25.5407 35.3234 25.5762 35.3139L25.7928 36.3189C25.7241 36.3426 25.6259 36.3686 25.498 36.397C25.3726 36.4254 25.2187 36.442 25.0364 36.4467C24.7144 36.4562 24.4244 36.4077 24.1664 36.3011C23.9083 36.1922 23.7035 36.0241 23.552 35.7969C23.4029 35.5696 23.3295 35.2855 23.3319 34.9446V29.6108Z" fill="white"/>
<path d="M25.6934 30.9176V31.9119H22.5577V30.9176H25.6934ZM23.3319 29.6108H24.6174V34.7315C24.6174 34.9044 24.6434 35.0369 24.6955 35.1293C24.7499 35.2192 24.821 35.2808 24.9086 35.3139C24.9962 35.3471 25.0932 35.3636 25.1998 35.3636C25.2802 35.3636 25.3536 35.3577 25.4199 35.3459C25.4886 35.334 25.5407 35.3234 25.5762 35.3139L25.7928 36.3189C25.7241 36.3426 25.6259 36.3686 25.498 36.397C25.3726 36.4254 25.2187 36.442 25.0364 36.4467C24.7144 36.4562 24.4244 36.4077 24.1664 36.3011C23.9083 36.1922 23.7035 36.0241 23.552 35.7969C23.4029 35.5696 23.3295 35.2855 23.3319 34.9446V29.6108Z" fill="url(#paint5_linear_319_1469)"/>
<path d="M29.1246 36.4787C28.5778 36.4787 28.1055 36.3651 27.7077 36.1378C27.3124 35.9081 27.0082 35.5838 26.7951 35.1648C26.582 34.7434 26.4755 34.2474 26.4755 33.6768C26.4755 33.1158 26.582 32.6233 26.7951 32.1996C27.0105 31.7734 27.3112 31.442 27.6971 31.2053C28.083 30.9661 28.5363 30.8466 29.0572 30.8466C29.3933 30.8466 29.7106 30.901 30.0089 31.0099C30.3095 31.1165 30.5747 31.2822 30.8043 31.5071C31.0363 31.732 31.2186 32.0185 31.3512 32.3665C31.4838 32.7121 31.5501 33.1241 31.5501 33.6023V33.9964H27.0792V33.13H30.3178C30.3155 32.8838 30.2622 32.6648 30.158 32.473C30.0539 32.2789 29.9083 32.1262 29.7212 32.0149C29.5366 31.9036 29.3211 31.848 29.0749 31.848C28.8121 31.848 28.5813 31.9119 28.3825 32.0398C28.1836 32.1652 28.0285 32.331 27.9173 32.5369C27.8084 32.7405 27.7527 32.9643 27.7504 33.2081V33.9645C27.7504 34.2817 27.8084 34.554 27.9244 34.7813C28.0404 35.0062 28.2025 35.179 28.4109 35.2997C28.6192 35.4181 28.863 35.4773 29.1424 35.4773C29.3294 35.4773 29.4987 35.4512 29.6502 35.3991C29.8017 35.3447 29.9331 35.2654 30.0444 35.1612C30.1557 35.0571 30.2397 34.928 30.2965 34.7741L31.4968 34.9091C31.421 35.2263 31.2766 35.5033 31.0636 35.7401C30.8529 35.9744 30.583 36.1567 30.2539 36.2869C29.9248 36.4148 29.5484 36.4787 29.1246 36.4787Z" fill="white"/>
<path d="M29.1246 36.4787C28.5778 36.4787 28.1055 36.3651 27.7077 36.1378C27.3124 35.9081 27.0082 35.5838 26.7951 35.1648C26.582 34.7434 26.4755 34.2474 26.4755 33.6768C26.4755 33.1158 26.582 32.6233 26.7951 32.1996C27.0105 31.7734 27.3112 31.442 27.6971 31.2053C28.083 30.9661 28.5363 30.8466 29.0572 30.8466C29.3933 30.8466 29.7106 30.901 30.0089 31.0099C30.3095 31.1165 30.5747 31.2822 30.8043 31.5071C31.0363 31.732 31.2186 32.0185 31.3512 32.3665C31.4838 32.7121 31.5501 33.1241 31.5501 33.6023V33.9964H27.0792V33.13H30.3178C30.3155 32.8838 30.2622 32.6648 30.158 32.473C30.0539 32.2789 29.9083 32.1262 29.7212 32.0149C29.5366 31.9036 29.3211 31.848 29.0749 31.848C28.8121 31.848 28.5813 31.9119 28.3825 32.0398C28.1836 32.1652 28.0285 32.331 27.9173 32.5369C27.8084 32.7405 27.7527 32.9643 27.7504 33.2081V33.9645C27.7504 34.2817 27.8084 34.554 27.9244 34.7813C28.0404 35.0062 28.2025 35.179 28.4109 35.2997C28.6192 35.4181 28.863 35.4773 29.1424 35.4773C29.3294 35.4773 29.4987 35.4512 29.6502 35.3991C29.8017 35.3447 29.9331 35.2654 30.0444 35.1612C30.1557 35.0571 30.2397 34.928 30.2965 34.7741L31.4968 34.9091C31.421 35.2263 31.2766 35.5033 31.0636 35.7401C30.8529 35.9744 30.583 36.1567 30.2539 36.2869C29.9248 36.4148 29.5484 36.4787 29.1246 36.4787Z" fill="url(#paint6_linear_319_1469)"/>
<defs>
<linearGradient id="paint0_linear_319_1469" x1="7.32221" y1="1" x2="24.7805" y2="1.48883" gradientUnits="userSpaceOnUse">
<stop stop-color="#5271EA"/>
<stop offset="0.5" stop-color="#C0EAFF"/>
<stop offset="1" stop-color="#D977CC"/>
</linearGradient>
<linearGradient id="paint1_linear_319_1469" x1="-0.777785" y1="26.3721" x2="33.1319" y2="30.1022" gradientUnits="userSpaceOnUse">
<stop stop-color="#5271EA"/>
<stop offset="0.5" stop-color="#C0EAFF"/>
<stop offset="1" stop-color="#D977CC"/>
</linearGradient>
<linearGradient id="paint2_linear_319_1469" x1="-0.777785" y1="26.3721" x2="33.1319" y2="30.1022" gradientUnits="userSpaceOnUse">
<stop stop-color="#5271EA"/>
<stop offset="0.5" stop-color="#C0EAFF"/>
<stop offset="1" stop-color="#D977CC"/>
</linearGradient>
<linearGradient id="paint3_linear_319_1469" x1="-0.777785" y1="26.3721" x2="33.1319" y2="30.1022" gradientUnits="userSpaceOnUse">
<stop stop-color="#5271EA"/>
<stop offset="0.5" stop-color="#C0EAFF"/>
<stop offset="1" stop-color="#D977CC"/>
</linearGradient>
<linearGradient id="paint4_linear_319_1469" x1="-0.777785" y1="26.3721" x2="33.1319" y2="30.1022" gradientUnits="userSpaceOnUse">
<stop stop-color="#5271EA"/>
<stop offset="0.5" stop-color="#C0EAFF"/>
<stop offset="1" stop-color="#D977CC"/>
</linearGradient>
<linearGradient id="paint5_linear_319_1469" x1="-0.777785" y1="26.3721" x2="33.1319" y2="30.1022" gradientUnits="userSpaceOnUse">
<stop stop-color="#5271EA"/>
<stop offset="0.5" stop-color="#C0EAFF"/>
<stop offset="1" stop-color="#D977CC"/>
</linearGradient>
<linearGradient id="paint6_linear_319_1469" x1="-0.777785" y1="26.3721" x2="33.1319" y2="30.1022" gradientUnits="userSpaceOnUse">
<stop stop-color="#5271EA"/>
<stop offset="0.5" stop-color="#C0EAFF"/>
<stop offset="1" stop-color="#D977CC"/>
</linearGradient>
</defs>
</svg>
