<svg width="17" height="16" viewBox="0 0 17 16" fill="none" xmlns="http://www.w3.org/2000/svg">
<path d="M16.5 8.17771C16.5 7.51993 16.4455 7.03993 16.3277 6.54215H8.66321V9.51103H13.1621C13.0714 10.2489 12.5816 11.36 11.4932 12.1066L11.4779 12.206L13.9012 14.0458L14.0691 14.0622C15.6111 12.6667 16.5 10.6133 16.5 8.17771Z" fill="#4285F4"/>
<path d="M8.66292 16C10.867 16 12.7173 15.2888 14.0688 14.0622L11.4928 12.1065C10.8035 12.5777 9.8783 12.9065 8.66292 12.9065C6.50422 12.9065 4.67201 11.511 4.01888 9.58212L3.92315 9.59007L1.40332 11.5012L1.37036 11.591C2.71276 14.2043 5.47016 16 8.66292 16Z" fill="#34A853"/>
<path d="M4.01926 9.58235C3.84693 9.08457 3.74719 8.5512 3.74719 8.00011C3.74719 7.44896 3.84693 6.91564 4.0102 6.41787L4.00563 6.31181L1.45421 4.37L1.37074 4.40892C0.817465 5.4934 0.5 6.71118 0.5 8.00011C0.5 9.28897 0.817465 10.5068 1.37074 11.5912L4.01926 9.58235Z" fill="#FBBC05"/>
<path d="M8.66283 3.09334C10.1957 3.09334 11.2297 3.74223 11.8193 4.28449L14.1232 2.08001C12.7082 0.79112 10.8669 0 8.66283 0C5.47007 0 2.71264 1.79556 1.37024 4.40888L4.00971 6.41782C4.67191 4.48892 6.50413 3.09334 8.66283 3.09334Z" fill="#EB4335"/>
</svg>
