<svg width="22" height="22" viewBox="0 0 22 22" fill="none" xmlns="http://www.w3.org/2000/svg">
<path d="M3.35671 17.4486C5.61409 16.1727 8.22202 15.4444 11 15.4444C13.778 15.4444 16.386 16.1727 18.6433 17.4486M14.3334 8.77778C14.3334 10.6187 12.841 12.1111 11 12.1111C9.15907 12.1111 7.66668 10.6187 7.66668 8.77778C7.66668 6.93683 9.15907 5.44444 11 5.44444C12.841 5.44444 14.3334 6.93683 14.3334 8.77778ZM21.0001 11C21.0001 16.5228 16.5229 21 11 21C5.47716 21 1 16.5228 1 11C1 5.47715 5.47716 1 11 1C16.5229 1 21.0001 5.47715 21.0001 11Z" stroke="#" stroke-width="2" stroke-linecap="round" stroke-linejoin="round"/>
</svg>
