<svg width="33" height="37" viewBox="0 0 33 37" fill="none" xmlns="http://www.w3.org/2000/svg">
<path d="M14.7901 5.18498C13.3995 7.37237 13.4254 10.2306 14.9621 12.4142C16.7363 14.9354 20.037 15.8643 22.8658 14.6385C25.6945 13.4128 27.2739 10.3692 26.6476 7.35059C26.0214 4.33229 23.3622 2.16837 20.2797 2.16857C20.2794 2.16857 20.279 2.16857 20.2787 2.16857L20.2788 2.89113L14.7901 5.18498ZM14.7901 5.18498L14.679 5.07317L14.6803 5.07181L15.6638 4.09124L15.6645 4.09049L15.6796 4.07547C15.6798 4.07523 15.68 4.07499 15.6803 4.07475L14.7901 5.18498ZM13.7203 14.2057L5.97228 21.9551L6.99527 22.9781L14.7432 15.2288L15.175 14.7969L15.6728 15.1508C19.0406 17.5451 23.6814 16.9595 26.3487 13.8035C29.0161 10.6475 28.8202 5.97411 25.8981 3.05238L25.898 3.05221C22.9767 0.129201 18.3028 -0.0675028 15.1462 2.59971C11.9897 5.26692 11.4037 9.90808 13.7982 13.2762L14.1521 13.7739L13.7203 14.2057Z" fill="#323232" stroke="url(#paint0_linear_319_1465)" stroke-width="1.44512"/>
<path d="M4.2152 30.7266C4.18206 30.4164 4.04238 30.175 3.79616 30.0021C3.55232 29.8293 3.23509 29.7429 2.84446 29.7429C2.56984 29.7429 2.33428 29.7843 2.13778 29.8672C1.94129 29.95 1.79096 30.0625 1.68679 30.2045C1.58262 30.3466 1.52936 30.5088 1.52699 30.691C1.52699 30.8426 1.56132 30.974 1.62997 31.0852C1.70099 31.1965 1.79688 31.2912 1.91761 31.3693C2.03835 31.4451 2.17211 31.509 2.31889 31.5611C2.46567 31.6132 2.61364 31.657 2.76278 31.6925L3.4446 31.8629C3.71922 31.9268 3.98319 32.0133 4.23651 32.1222C4.49219 32.2311 4.72064 32.3684 4.92188 32.5341C5.12547 32.6998 5.28646 32.8999 5.40483 33.1342C5.5232 33.3686 5.58239 33.6432 5.58239 33.9581C5.58239 34.3842 5.47348 34.7595 5.25568 35.0838C5.03788 35.4058 4.72301 35.6579 4.31108 35.8402C3.90152 36.0201 3.40554 36.1101 2.82315 36.1101C2.25734 36.1101 1.7661 36.0225 1.34943 35.8473C0.935133 35.6721 0.610795 35.4164 0.37642 35.0803C0.144413 34.7441 0.0189394 34.3345 0 33.8516H1.29616C1.3151 34.1049 1.39323 34.3156 1.53054 34.4837C1.66785 34.6517 1.84659 34.7772 2.06676 34.8601C2.2893 34.9429 2.53788 34.9844 2.8125 34.9844C3.09896 34.9844 3.34991 34.9418 3.56534 34.8565C3.78314 34.7689 3.9536 34.6482 4.0767 34.4943C4.19981 34.3381 4.26255 34.1558 4.26491 33.9474C4.26255 33.758 4.20691 33.6018 4.09801 33.4787C3.98911 33.3532 3.83641 33.2491 3.63991 33.1662C3.44579 33.081 3.21851 33.0052 2.9581 32.9389L2.13068 32.7258C1.53172 32.572 1.05824 32.3388 0.710227 32.0263C0.364583 31.7114 0.191761 31.2936 0.191761 30.7727C0.191761 30.3442 0.307765 29.969 0.539773 29.647C0.774148 29.325 1.09257 29.0753 1.49503 28.8977C1.89749 28.7178 2.35322 28.6278 2.86222 28.6278C3.37831 28.6278 3.83049 28.7178 4.21875 28.8977C4.60938 29.0753 4.91596 29.3227 5.13849 29.6399C5.36103 29.9548 5.47585 30.317 5.48295 30.7266H4.2152Z" fill="white"/>
<path d="M4.2152 30.7266C4.18206 30.4164 4.04238 30.175 3.79616 30.0021C3.55232 29.8293 3.23509 29.7429 2.84446 29.7429C2.56984 29.7429 2.33428 29.7843 2.13778 29.8672C1.94129 29.95 1.79096 30.0625 1.68679 30.2045C1.58262 30.3466 1.52936 30.5088 1.52699 30.691C1.52699 30.8426 1.56132 30.974 1.62997 31.0852C1.70099 31.1965 1.79688 31.2912 1.91761 31.3693C2.03835 31.4451 2.17211 31.509 2.31889 31.5611C2.46567 31.6132 2.61364 31.657 2.76278 31.6925L3.4446 31.8629C3.71922 31.9268 3.98319 32.0133 4.23651 32.1222C4.49219 32.2311 4.72064 32.3684 4.92188 32.5341C5.12547 32.6998 5.28646 32.8999 5.40483 33.1342C5.5232 33.3686 5.58239 33.6432 5.58239 33.9581C5.58239 34.3842 5.47348 34.7595 5.25568 35.0838C5.03788 35.4058 4.72301 35.6579 4.31108 35.8402C3.90152 36.0201 3.40554 36.1101 2.82315 36.1101C2.25734 36.1101 1.7661 36.0225 1.34943 35.8473C0.935133 35.6721 0.610795 35.4164 0.37642 35.0803C0.144413 34.7441 0.0189394 34.3345 0 33.8516H1.29616C1.3151 34.1049 1.39323 34.3156 1.53054 34.4837C1.66785 34.6517 1.84659 34.7772 2.06676 34.8601C2.2893 34.9429 2.53788 34.9844 2.8125 34.9844C3.09896 34.9844 3.34991 34.9418 3.56534 34.8565C3.78314 34.7689 3.9536 34.6482 4.0767 34.4943C4.19981 34.3381 4.26255 34.1558 4.26491 33.9474C4.26255 33.758 4.20691 33.6018 4.09801 33.4787C3.98911 33.3532 3.83641 33.2491 3.63991 33.1662C3.44579 33.081 3.21851 33.0052 2.9581 32.9389L2.13068 32.7258C1.53172 32.572 1.05824 32.3388 0.710227 32.0263C0.364583 31.7114 0.191761 31.2936 0.191761 30.7727C0.191761 30.3442 0.307765 29.969 0.539773 29.647C0.774148 29.325 1.09257 29.0753 1.49503 28.8977C1.89749 28.7178 2.35322 28.6278 2.86222 28.6278C3.37831 28.6278 3.83049 28.7178 4.21875 28.8977C4.60938 29.0753 4.91596 29.3227 5.13849 29.6399C5.36103 29.9548 5.47585 30.317 5.48295 30.7266H4.2152Z" fill="url(#paint1_linear_319_1465)"/>
<path d="M9.11488 36.1065C8.568 36.1065 8.0957 35.9929 7.69798 35.7656C7.30262 35.536 6.9984 35.2116 6.78533 34.7926C6.57227 34.3712 6.46573 33.8752 6.46573 33.3047C6.46573 32.7436 6.57227 32.2512 6.78533 31.8274C7.00077 31.4013 7.30143 31.0698 7.68732 30.8331C8.07321 30.594 8.52657 30.4744 9.04741 30.4744C9.38358 30.4744 9.70082 30.5289 9.99911 30.6378C10.2998 30.7443 10.5649 30.91 10.7946 31.1349C11.0266 31.3598 11.2089 31.6463 11.3414 31.9943C11.474 32.34 11.5403 32.7519 11.5403 33.2301V33.6243H7.06942V32.7578H10.3081C10.3057 32.5116 10.2524 32.2926 10.1483 32.1008C10.0441 31.9067 9.8985 31.754 9.71147 31.6428C9.52681 31.5315 9.31137 31.4758 9.06516 31.4758C8.80238 31.4758 8.57156 31.5398 8.37269 31.6676C8.17383 31.7931 8.01876 31.9588 7.90749 32.1648C7.79859 32.3684 7.74296 32.5921 7.74059 32.8359V33.5923C7.74059 33.9096 7.79859 34.1818 7.9146 34.4091C8.0306 34.634 8.19277 34.8068 8.4011 34.9276C8.60943 35.0459 8.85328 35.1051 9.13264 35.1051C9.31966 35.1051 9.48893 35.0791 9.64045 35.027C9.79196 34.9725 9.92336 34.8932 10.0346 34.7891C10.1459 34.6849 10.2299 34.5559 10.2868 34.402L11.487 34.5369C11.4113 34.8542 11.2669 35.1312 11.0538 35.3679C10.8431 35.6023 10.5732 35.7846 10.2441 35.9148C9.91507 36.0426 9.53865 36.1065 9.11488 36.1065Z" fill="white"/>
<path d="M9.11488 36.1065C8.568 36.1065 8.0957 35.9929 7.69798 35.7656C7.30262 35.536 6.9984 35.2116 6.78533 34.7926C6.57227 34.3712 6.46573 33.8752 6.46573 33.3047C6.46573 32.7436 6.57227 32.2512 6.78533 31.8274C7.00077 31.4013 7.30143 31.0698 7.68732 30.8331C8.07321 30.594 8.52657 30.4744 9.04741 30.4744C9.38358 30.4744 9.70082 30.5289 9.99911 30.6378C10.2998 30.7443 10.5649 30.91 10.7946 31.1349C11.0266 31.3598 11.2089 31.6463 11.3414 31.9943C11.474 32.34 11.5403 32.7519 11.5403 33.2301V33.6243H7.06942V32.7578H10.3081C10.3057 32.5116 10.2524 32.2926 10.1483 32.1008C10.0441 31.9067 9.8985 31.754 9.71147 31.6428C9.52681 31.5315 9.31137 31.4758 9.06516 31.4758C8.80238 31.4758 8.57156 31.5398 8.37269 31.6676C8.17383 31.7931 8.01876 31.9588 7.90749 32.1648C7.79859 32.3684 7.74296 32.5921 7.74059 32.8359V33.5923C7.74059 33.9096 7.79859 34.1818 7.9146 34.4091C8.0306 34.634 8.19277 34.8068 8.4011 34.9276C8.60943 35.0459 8.85328 35.1051 9.13264 35.1051C9.31966 35.1051 9.48893 35.0791 9.64045 35.027C9.79196 34.9725 9.92336 34.8932 10.0346 34.7891C10.1459 34.6849 10.2299 34.5559 10.2868 34.402L11.487 34.5369C11.4113 34.8542 11.2669 35.1312 11.0538 35.3679C10.8431 35.6023 10.5732 35.7846 10.2441 35.9148C9.91507 36.0426 9.53865 36.1065 9.11488 36.1065Z" fill="url(#paint2_linear_319_1465)"/>
<path d="M14.1974 36.1101C13.8518 36.1101 13.5405 36.0485 13.2635 35.9254C12.9889 35.8 12.7711 35.6153 12.6101 35.3714C12.4515 35.1276 12.3722 34.8269 12.3722 34.4695C12.3722 34.1617 12.429 33.9072 12.5426 33.706C12.6563 33.5047 12.8113 33.3437 13.0078 33.223C13.2043 33.1023 13.4257 33.0111 13.6719 32.9496C13.9205 32.8857 14.1773 32.8395 14.4425 32.8111C14.7621 32.7779 15.0213 32.7483 15.2202 32.7223C15.419 32.6939 15.5634 32.6513 15.6534 32.5945C15.7457 32.5353 15.7919 32.4441 15.7919 32.321V32.2997C15.7919 32.0322 15.7126 31.825 15.554 31.6783C15.3954 31.5315 15.1669 31.4581 14.8686 31.4581C14.5537 31.4581 14.304 31.5267 14.1193 31.6641C13.937 31.8014 13.8139 31.9635 13.75 32.1506L12.5497 31.9801C12.6444 31.6487 12.8007 31.3717 13.0185 31.1491C13.2363 30.9242 13.5026 30.7562 13.8175 30.6449C14.1323 30.5312 14.4804 30.4744 14.8615 30.4744C15.1243 30.4744 15.3859 30.5052 15.6463 30.5668C15.9067 30.6283 16.1446 30.7301 16.3601 30.8722C16.5755 31.0118 16.7483 31.2024 16.8786 31.4439C17.0111 31.6854 17.0774 31.9872 17.0774 32.3494V36H15.8416V35.2507H15.799C15.7209 35.4022 15.6108 35.5443 15.4688 35.6768C15.3291 35.8071 15.1527 35.9124 14.9396 35.9929C14.7289 36.071 14.4815 36.1101 14.1974 36.1101ZM14.5312 35.1655C14.7893 35.1655 15.013 35.1146 15.2024 35.0128C15.3918 34.9086 15.5374 34.7713 15.6392 34.6008C15.7434 34.4304 15.7955 34.2446 15.7955 34.0433V33.4006C15.7552 33.4337 15.6866 33.4645 15.5895 33.4929C15.4948 33.5213 15.3883 33.5462 15.2699 33.5675C15.1515 33.5888 15.0343 33.6077 14.9183 33.6243C14.8023 33.6409 14.7017 33.6551 14.6165 33.6669C14.4247 33.6929 14.2531 33.7356 14.1016 33.7947C13.95 33.8539 13.8305 33.9368 13.7429 34.0433C13.6553 34.1475 13.6115 34.2824 13.6115 34.4482C13.6115 34.6849 13.6979 34.8636 13.8707 34.9844C14.0436 35.1051 14.2637 35.1655 14.5312 35.1655Z" fill="white"/>
<path d="M14.1974 36.1101C13.8518 36.1101 13.5405 36.0485 13.2635 35.9254C12.9889 35.8 12.7711 35.6153 12.6101 35.3714C12.4515 35.1276 12.3722 34.8269 12.3722 34.4695C12.3722 34.1617 12.429 33.9072 12.5426 33.706C12.6563 33.5047 12.8113 33.3437 13.0078 33.223C13.2043 33.1023 13.4257 33.0111 13.6719 32.9496C13.9205 32.8857 14.1773 32.8395 14.4425 32.8111C14.7621 32.7779 15.0213 32.7483 15.2202 32.7223C15.419 32.6939 15.5634 32.6513 15.6534 32.5945C15.7457 32.5353 15.7919 32.4441 15.7919 32.321V32.2997C15.7919 32.0322 15.7126 31.825 15.554 31.6783C15.3954 31.5315 15.1669 31.4581 14.8686 31.4581C14.5537 31.4581 14.304 31.5267 14.1193 31.6641C13.937 31.8014 13.8139 31.9635 13.75 32.1506L12.5497 31.9801C12.6444 31.6487 12.8007 31.3717 13.0185 31.1491C13.2363 30.9242 13.5026 30.7562 13.8175 30.6449C14.1323 30.5312 14.4804 30.4744 14.8615 30.4744C15.1243 30.4744 15.3859 30.5052 15.6463 30.5668C15.9067 30.6283 16.1446 30.7301 16.3601 30.8722C16.5755 31.0118 16.7483 31.2024 16.8786 31.4439C17.0111 31.6854 17.0774 31.9872 17.0774 32.3494V36H15.8416V35.2507H15.799C15.7209 35.4022 15.6108 35.5443 15.4688 35.6768C15.3291 35.8071 15.1527 35.9124 14.9396 35.9929C14.7289 36.071 14.4815 36.1101 14.1974 36.1101ZM14.5312 35.1655C14.7893 35.1655 15.013 35.1146 15.2024 35.0128C15.3918 34.9086 15.5374 34.7713 15.6392 34.6008C15.7434 34.4304 15.7955 34.2446 15.7955 34.0433V33.4006C15.7552 33.4337 15.6866 33.4645 15.5895 33.4929C15.4948 33.5213 15.3883 33.5462 15.2699 33.5675C15.1515 33.5888 15.0343 33.6077 14.9183 33.6243C14.8023 33.6409 14.7017 33.6551 14.6165 33.6669C14.4247 33.6929 14.2531 33.7356 14.1016 33.7947C13.95 33.8539 13.8305 33.9368 13.7429 34.0433C13.6553 34.1475 13.6115 34.2824 13.6115 34.4482C13.6115 34.6849 13.6979 34.8636 13.8707 34.9844C14.0436 35.1051 14.2637 35.1655 14.5312 35.1655Z" fill="url(#paint3_linear_319_1465)"/>
<path d="M18.37 36V30.5455H19.6165V31.4545H19.6733C19.7727 31.1397 19.9432 30.897 20.1847 30.7266C20.4285 30.5537 20.7067 30.4673 21.0192 30.4673C21.0902 30.4673 21.1695 30.4709 21.2571 30.478C21.3471 30.4827 21.4216 30.491 21.4808 30.5028V31.6854C21.4264 31.6664 21.34 31.6499 21.2216 31.6357C21.1056 31.6191 20.9931 31.6108 20.8842 31.6108C20.6499 31.6108 20.4392 31.6617 20.2521 31.7635C20.0675 31.8629 19.9219 32.0014 19.8153 32.179C19.7088 32.3565 19.6555 32.5613 19.6555 32.7933V36H18.37Z" fill="white"/>
<path d="M18.37 36V30.5455H19.6165V31.4545H19.6733C19.7727 31.1397 19.9432 30.897 20.1847 30.7266C20.4285 30.5537 20.7067 30.4673 21.0192 30.4673C21.0902 30.4673 21.1695 30.4709 21.2571 30.478C21.3471 30.4827 21.4216 30.491 21.4808 30.5028V31.6854C21.4264 31.6664 21.34 31.6499 21.2216 31.6357C21.1056 31.6191 20.9931 31.6108 20.8842 31.6108C20.6499 31.6108 20.4392 31.6617 20.2521 31.7635C20.0675 31.8629 19.9219 32.0014 19.8153 32.179C19.7088 32.3565 19.6555 32.5613 19.6555 32.7933V36H18.37Z" fill="url(#paint4_linear_319_1465)"/>
<path d="M24.4895 36.1065C23.945 36.1065 23.4774 35.987 23.0868 35.7479C22.6986 35.5088 22.3991 35.1785 22.1884 34.7571C21.9801 34.3333 21.8759 33.8456 21.8759 33.294C21.8759 32.7401 21.9824 32.2512 22.1955 31.8274C22.4086 31.4013 22.7092 31.0698 23.0975 30.8331C23.4881 30.594 23.9498 30.4744 24.4824 30.4744C24.9251 30.4744 25.3169 30.5561 25.6578 30.7195C26.0011 30.8804 26.2746 31.1089 26.4782 31.4048C26.6818 31.6984 26.7978 32.0417 26.8262 32.4347H25.5975C25.5478 32.1719 25.4294 31.9529 25.2424 31.7777C25.0577 31.6001 24.8103 31.5114 24.5002 31.5114C24.2374 31.5114 24.0066 31.5824 23.8077 31.7244C23.6088 31.8641 23.4538 32.0653 23.3425 32.3281C23.2336 32.5909 23.1792 32.9058 23.1792 33.2727C23.1792 33.6444 23.2336 33.964 23.3425 34.2315C23.4514 34.4967 23.6041 34.7015 23.8006 34.8459C23.9995 34.9879 24.2327 35.0589 24.5002 35.0589C24.6896 35.0589 24.8588 35.0234 25.008 34.9524C25.1595 34.879 25.2862 34.7737 25.388 34.6364C25.4898 34.4991 25.5596 34.3321 25.5975 34.1357H26.8262C26.7954 34.5215 26.6818 34.8636 26.4853 35.1619C26.2888 35.4579 26.0212 35.6899 25.6827 35.858C25.3442 36.0237 24.9464 36.1065 24.4895 36.1065Z" fill="white"/>
<path d="M24.4895 36.1065C23.945 36.1065 23.4774 35.987 23.0868 35.7479C22.6986 35.5088 22.3991 35.1785 22.1884 34.7571C21.9801 34.3333 21.8759 33.8456 21.8759 33.294C21.8759 32.7401 21.9824 32.2512 22.1955 31.8274C22.4086 31.4013 22.7092 31.0698 23.0975 30.8331C23.4881 30.594 23.9498 30.4744 24.4824 30.4744C24.9251 30.4744 25.3169 30.5561 25.6578 30.7195C26.0011 30.8804 26.2746 31.1089 26.4782 31.4048C26.6818 31.6984 26.7978 32.0417 26.8262 32.4347H25.5975C25.5478 32.1719 25.4294 31.9529 25.2424 31.7777C25.0577 31.6001 24.8103 31.5114 24.5002 31.5114C24.2374 31.5114 24.0066 31.5824 23.8077 31.7244C23.6088 31.8641 23.4538 32.0653 23.3425 32.3281C23.2336 32.5909 23.1792 32.9058 23.1792 33.2727C23.1792 33.6444 23.2336 33.964 23.3425 34.2315C23.4514 34.4967 23.6041 34.7015 23.8006 34.8459C23.9995 34.9879 24.2327 35.0589 24.5002 35.0589C24.6896 35.0589 24.8588 35.0234 25.008 34.9524C25.1595 34.879 25.2862 34.7737 25.388 34.6364C25.4898 34.4991 25.5596 34.3321 25.5975 34.1357H26.8262C26.7954 34.5215 26.6818 34.8636 26.4853 35.1619C26.2888 35.4579 26.0212 35.6899 25.6827 35.858C25.3442 36.0237 24.9464 36.1065 24.4895 36.1065Z" fill="url(#paint5_linear_319_1465)"/>
<path d="M29.1673 32.804V36H27.8817V28.7273H29.1388V31.4723H29.2028C29.3306 31.1645 29.5283 30.9219 29.7958 30.7443C30.0657 30.5644 30.409 30.4744 30.8256 30.4744C31.2044 30.4744 31.5347 30.5537 31.8164 30.7124C32.0981 30.871 32.3159 31.103 32.4698 31.4084C32.6261 31.7138 32.7042 32.0866 32.7042 32.527V36H31.4187V32.7258C31.4187 32.3589 31.324 32.0736 31.1346 31.87C30.9476 31.6641 30.6848 31.5611 30.3462 31.5611C30.119 31.5611 29.9154 31.6108 29.7354 31.7102C29.5579 31.8073 29.4182 31.9482 29.3164 32.1328C29.217 32.3175 29.1673 32.5412 29.1673 32.804Z" fill="white"/>
<path d="M29.1673 32.804V36H27.8817V28.7273H29.1388V31.4723H29.2028C29.3306 31.1645 29.5283 30.9219 29.7958 30.7443C30.0657 30.5644 30.409 30.4744 30.8256 30.4744C31.2044 30.4744 31.5347 30.5537 31.8164 30.7124C32.0981 30.871 32.3159 31.103 32.4698 31.4084C32.6261 31.7138 32.7042 32.0866 32.7042 32.527V36H31.4187V32.7258C31.4187 32.3589 31.324 32.0736 31.1346 31.87C30.9476 31.6641 30.6848 31.5611 30.3462 31.5611C30.119 31.5611 29.9154 31.6108 29.7354 31.7102C29.5579 31.8073 29.4182 31.9482 29.3164 32.1328C29.217 32.3175 29.1673 32.5412 29.1673 32.804Z" fill="url(#paint6_linear_319_1465)"/>
<defs>
<linearGradient id="paint0_linear_319_1465" x1="29.5174" y1="23.561" x2="0.445984" y2="10.355" gradientUnits="userSpaceOnUse">
<stop stop-color="#5271EA"/>
<stop offset="0.5" stop-color="#C0EAFF"/>
<stop offset="1" stop-color="#D977CC"/>
</linearGradient>
<linearGradient id="paint1_linear_319_1465" x1="-0.550248" y1="26" x2="34.3613" y2="29.9566" gradientUnits="userSpaceOnUse">
<stop stop-color="#5271EA"/>
<stop offset="0.5" stop-color="#C0EAFF"/>
<stop offset="1" stop-color="#D977CC"/>
</linearGradient>
<linearGradient id="paint2_linear_319_1465" x1="-0.550248" y1="26" x2="34.3613" y2="29.9566" gradientUnits="userSpaceOnUse">
<stop stop-color="#5271EA"/>
<stop offset="0.5" stop-color="#C0EAFF"/>
<stop offset="1" stop-color="#D977CC"/>
</linearGradient>
<linearGradient id="paint3_linear_319_1465" x1="-0.550248" y1="26" x2="34.3613" y2="29.9566" gradientUnits="userSpaceOnUse">
<stop stop-color="#5271EA"/>
<stop offset="0.5" stop-color="#C0EAFF"/>
<stop offset="1" stop-color="#D977CC"/>
</linearGradient>
<linearGradient id="paint4_linear_319_1465" x1="-0.550248" y1="26" x2="34.3613" y2="29.9566" gradientUnits="userSpaceOnUse">
<stop stop-color="#5271EA"/>
<stop offset="0.5" stop-color="#C0EAFF"/>
<stop offset="1" stop-color="#D977CC"/>
</linearGradient>
<linearGradient id="paint5_linear_319_1465" x1="-0.550248" y1="26" x2="34.3613" y2="29.9566" gradientUnits="userSpaceOnUse">
<stop stop-color="#5271EA"/>
<stop offset="0.5" stop-color="#C0EAFF"/>
<stop offset="1" stop-color="#D977CC"/>
</linearGradient>
<linearGradient id="paint6_linear_319_1465" x1="-0.550248" y1="26" x2="34.3613" y2="29.9566" gradientUnits="userSpaceOnUse">
<stop stop-color="#5271EA"/>
<stop offset="0.5" stop-color="#C0EAFF"/>
<stop offset="1" stop-color="#D977CC"/>
</linearGradient>
</defs>
</svg>
