<svg width="18" height="20" viewBox="0 0 18 20" fill="none" xmlns="http://www.w3.org/2000/svg">
<path d="M14 20H4C2.89543 20 2 19.1046 2 18V5H0V3H4V2C4 0.89543 4.89543 0 6 0H12C13.1046 0 14 0.89543 14 2V3H18V5H16V18C16 19.1046 15.1046 20 14 20ZM4 5V18H14V5H4ZM6 2V3H12V2H6ZM12 16H10V7H12V16ZM8 16H6V7H8V16Z" fill="#323232"/>
<path d="M14 20H4C2.89543 20 2 19.1046 2 18V5H0V3H4V2C4 0.89543 4.89543 0 6 0H12C13.1046 0 14 0.89543 14 2V3H18V5H16V18C16 19.1046 15.1046 20 14 20ZM4 5V18H14V5H4ZM6 2V3H12V2H6ZM12 16H10V7H12V16ZM8 16H6V7H8V16Z" fill="url(#paint0_linear_566_2757)"/>
<defs>
<linearGradient id="paint0_linear_566_2757" x1="0" y1="0" x2="12.5342" y2="22.9811" gradientUnits="userSpaceOnUse">
<stop stop-color="#5271EA"/>
<stop offset="0.5" stop-color="#C0EAFF"/>
<stop offset="1" stop-color="#D977CC"/>
</linearGradient>
</defs>
</svg>
