<svg width="33" height="37" viewBox="0 0 33 37" fill="none" xmlns="http://www.w3.org/2000/svg">
<path d="M16.85 5.7C21.9665 5.7 26.5295 8.5755 28.757 13.125C26.5295 17.6745 21.9665 20.55 16.85 20.55C11.7335 20.55 7.1705 17.6745 4.943 13.125C7.1705 8.5755 11.7335 5.7 16.85 5.7ZM16.85 3C10.1 3 4.3355 7.1985 2 13.125C4.3355 19.0515 10.1 23.25 16.85 23.25C23.6 23.25 29.3645 19.0515 31.7 13.125C29.3645 7.1985 23.6 3 16.85 3ZM16.85 9.75C18.713 9.75 20.225 11.262 20.225 13.125C20.225 14.988 18.713 16.5 16.85 16.5C14.987 16.5 13.475 14.988 13.475 13.125C13.475 11.262 14.987 9.75 16.85 9.75ZM16.85 7.05C13.502 7.05 10.775 9.777 10.775 13.125C10.775 16.473 13.502 19.2 16.85 19.2C20.198 19.2 22.925 16.473 22.925 13.125C22.925 9.777 20.198 7.05 16.85 7.05Z" fill="white"/>
<path d="M16.85 5.7C21.9665 5.7 26.5295 8.5755 28.757 13.125C26.5295 17.6745 21.9665 20.55 16.85 20.55C11.7335 20.55 7.1705 17.6745 4.943 13.125C7.1705 8.5755 11.7335 5.7 16.85 5.7ZM16.85 3C10.1 3 4.3355 7.1985 2 13.125C4.3355 19.0515 10.1 23.25 16.85 23.25C23.6 23.25 29.3645 19.0515 31.7 13.125C29.3645 7.1985 23.6 3 16.85 3ZM16.85 9.75C18.713 9.75 20.225 11.262 20.225 13.125C20.225 14.988 18.713 16.5 16.85 16.5C14.987 16.5 13.475 14.988 13.475 13.125C13.475 11.262 14.987 9.75 16.85 9.75ZM16.85 7.05C13.502 7.05 10.775 9.777 10.775 13.125C10.775 16.473 13.502 19.2 16.85 19.2C20.198 19.2 22.925 16.473 22.925 13.125C22.925 9.777 20.198 7.05 16.85 7.05Z" fill="url(#paint0_linear_319_1465)"/>
<path d="M6.7081 28.4155L8.46591 33.9411H8.53338L10.2947 28.4155H11.9993L9.49219 35.6882H7.51065L5 28.4155H6.7081Z" fill="white"/>
<path d="M6.7081 28.4155L8.46591 33.9411H8.53338L10.2947 28.4155H11.9993L9.49219 35.6882H7.51065L5 28.4155H6.7081Z" fill="url(#paint1_linear_319_1465)"/>
<path d="M12.4462 35.6882V30.2337H13.959V35.6882H12.4462ZM13.2062 29.5305C12.9813 29.5305 12.7883 29.456 12.6273 29.3068C12.4687 29.1553 12.3894 28.9742 12.3894 28.7635C12.3894 28.5552 12.4687 28.3764 12.6273 28.2273C12.7883 28.0758 12.9813 28 13.2062 28C13.4311 28 13.6228 28.0758 13.7815 28.2273C13.9424 28.3764 14.0229 28.5552 14.0229 28.7635C14.0229 28.9742 13.9424 29.1553 13.7815 29.3068C13.6228 29.456 13.4311 29.5305 13.2062 29.5305Z" fill="white"/>
<path d="M12.4462 35.6882V30.2337H13.959V35.6882H12.4462ZM13.2062 29.5305C12.9813 29.5305 12.7883 29.456 12.6273 29.3068C12.4687 29.1553 12.3894 28.9742 12.3894 28.7635C12.3894 28.5552 12.4687 28.3764 12.6273 28.2273C12.7883 28.0758 12.9813 28 13.2062 28C13.4311 28 13.6228 28.0758 13.7815 28.2273C13.9424 28.3764 14.0229 28.5552 14.0229 28.7635C14.0229 28.9742 13.9424 29.1553 13.7815 29.3068C13.6228 29.456 13.4311 29.5305 13.2062 29.5305Z" fill="url(#paint2_linear_319_1465)"/>
<path d="M17.2566 35.7947C16.6956 35.7947 16.2126 35.6811 15.8078 35.4538C15.4053 35.2242 15.0952 34.8999 14.8774 34.4808C14.6596 34.0594 14.5507 33.5611 14.5507 32.9858C14.5507 32.4247 14.6596 31.9323 14.8774 31.5085C15.0952 31.0848 15.4018 30.7545 15.7971 30.5178C16.1949 30.281 16.6612 30.1626 17.1963 30.1626C17.5561 30.1626 17.8911 30.2206 18.2012 30.3366C18.5137 30.4503 18.786 30.6219 19.018 30.8516C19.2524 31.0812 19.4347 31.37 19.5649 31.718C19.6951 32.0637 19.7602 32.4685 19.7602 32.9325V33.348H15.1544V32.4105H18.3362C18.3362 32.1927 18.2888 31.9998 18.1941 31.8317C18.0994 31.6636 17.9681 31.5322 17.8 31.4375C17.6342 31.3404 17.4413 31.2919 17.2211 31.2919C16.9915 31.2919 16.7879 31.3452 16.6103 31.4517C16.4351 31.5559 16.2978 31.6967 16.1984 31.8743C16.099 32.0495 16.0481 32.2448 16.0457 32.4602V33.3516C16.0457 33.6214 16.0954 33.8546 16.1948 34.0511C16.2966 34.2476 16.4399 34.3991 16.6245 34.5057C16.8092 34.6122 17.0282 34.6655 17.2815 34.6655C17.4496 34.6655 17.6035 34.6418 17.7431 34.5945C17.8828 34.5471 18.0024 34.4761 18.1018 34.3814C18.2012 34.2867 18.277 34.1707 18.3291 34.0334L19.7282 34.1257C19.6572 34.4619 19.5116 34.7554 19.2914 35.0064C19.0736 35.255 18.7919 35.4491 18.4463 35.5888C18.103 35.7261 17.7065 35.7947 17.2566 35.7947Z" fill="white"/>
<path d="M17.2566 35.7947C16.6956 35.7947 16.2126 35.6811 15.8078 35.4538C15.4053 35.2242 15.0952 34.8999 14.8774 34.4808C14.6596 34.0594 14.5507 33.5611 14.5507 32.9858C14.5507 32.4247 14.6596 31.9323 14.8774 31.5085C15.0952 31.0848 15.4018 30.7545 15.7971 30.5178C16.1949 30.281 16.6612 30.1626 17.1963 30.1626C17.5561 30.1626 17.8911 30.2206 18.2012 30.3366C18.5137 30.4503 18.786 30.6219 19.018 30.8516C19.2524 31.0812 19.4347 31.37 19.5649 31.718C19.6951 32.0637 19.7602 32.4685 19.7602 32.9325V33.348H15.1544V32.4105H18.3362C18.3362 32.1927 18.2888 31.9998 18.1941 31.8317C18.0994 31.6636 17.9681 31.5322 17.8 31.4375C17.6342 31.3404 17.4413 31.2919 17.2211 31.2919C16.9915 31.2919 16.7879 31.3452 16.6103 31.4517C16.4351 31.5559 16.2978 31.6967 16.1984 31.8743C16.099 32.0495 16.0481 32.2448 16.0457 32.4602V33.3516C16.0457 33.6214 16.0954 33.8546 16.1948 34.0511C16.2966 34.2476 16.4399 34.3991 16.6245 34.5057C16.8092 34.6122 17.0282 34.6655 17.2815 34.6655C17.4496 34.6655 17.6035 34.6418 17.7431 34.5945C17.8828 34.5471 18.0024 34.4761 18.1018 34.3814C18.2012 34.2867 18.277 34.1707 18.3291 34.0334L19.7282 34.1257C19.6572 34.4619 19.5116 34.7554 19.2914 35.0064C19.0736 35.255 18.7919 35.4491 18.4463 35.5888C18.103 35.7261 17.7065 35.7947 17.2566 35.7947Z" fill="url(#paint3_linear_319_1465)"/>
<path d="M21.3843 35.6882L19.9 30.2337H21.4305L22.2757 33.8984H22.3254L23.2061 30.2337H24.7082L25.6031 33.8771H25.6493L26.4802 30.2337H28.0072L26.5264 35.6882H24.9248L23.9873 32.2578H23.9199L22.9824 35.6882H21.3843Z" fill="white"/>
<path d="M21.3843 35.6882L19.9 30.2337H21.4305L22.2757 33.8984H22.3254L23.2061 30.2337H24.7082L25.6031 33.8771H25.6493L26.4802 30.2337H28.0072L26.5264 35.6882H24.9248L23.9873 32.2578H23.9199L22.9824 35.6882H21.3843Z" fill="url(#paint4_linear_319_1465)"/>
<defs>
<linearGradient id="paint0_linear_319_1465" x1="2" y1="3" x2="32.7821" y2="4.80588" gradientUnits="userSpaceOnUse">
<stop stop-color="#5271EA"/>
<stop offset="0.5" stop-color="#C0EAFF"/>
<stop offset="1" stop-color="#D977CC"/>
</linearGradient>
<linearGradient id="paint1_linear_319_1465" x1="5" y1="28" x2="28.5985" y2="30.7862" gradientUnits="userSpaceOnUse">
<stop stop-color="#5271EA"/>
<stop offset="0.5" stop-color="#C0EAFF"/>
<stop offset="1" stop-color="#D977CC"/>
</linearGradient>
<linearGradient id="paint2_linear_319_1465" x1="5" y1="28" x2="28.5985" y2="30.7862" gradientUnits="userSpaceOnUse">
<stop stop-color="#5271EA"/>
<stop offset="0.5" stop-color="#C0EAFF"/>
<stop offset="1" stop-color="#D977CC"/>
</linearGradient>
<linearGradient id="paint3_linear_319_1465" x1="5" y1="28" x2="28.5985" y2="30.7862" gradientUnits="userSpaceOnUse">
<stop stop-color="#5271EA"/>
<stop offset="0.5" stop-color="#C0EAFF"/>
<stop offset="1" stop-color="#D977CC"/>
</linearGradient>
<linearGradient id="paint4_linear_319_1465" x1="5" y1="28" x2="28.5985" y2="30.7862" gradientUnits="userSpaceOnUse">
<stop stop-color="#5271EA"/>
<stop offset="0.5" stop-color="#C0EAFF"/>
<stop offset="1" stop-color="#D977CC"/>
</linearGradient>
</defs>
</svg>
